<?xml version="1.0"?>
<svg xmlns="http://www.w3.org/2000/svg" xmlns:xlink="http://www.w3.org/1999/xlink" width="213.603149" height="150.098007">
	<defs>
		<marker id="CustomMarker-01" markerUnits="strokeWidth" markerWidth="15.000001" markerHeight="9" viewBox="-15 -4.5 15 9" orient="auto-start-reverse">
			<path d="M 0 -0 L -10 -3, -8 -0.5, -8 0.5, -10 3 Z" fill="#000000" stroke="#000000" stroke-linejoin="round" />
		</marker>
		<marker id="CustomMarker-02" markerUnits="strokeWidth" markerWidth="15.000001" markerHeight="9" viewBox="-15 -4.5 15 9" orient="auto-start-reverse">
			<path d="M 0 -0 L -10 -3, -8 -0.5, -8 0.5, -10 3 Z" fill="#000000" stroke="#000000" stroke-linejoin="round" />
		</marker>
	</defs>
	<path d="M 0 226.071 L 0 -226.071" fill="none" stroke="#000000" stroke-width="4.4000001" stroke-linecap="round" stroke-linejoin="round" marker-end="url(#CustomMarker-01)" transform="matrix(0.227273 0 0 0.227273 15.4507 80.6831)" />
	<path d="M -375.167 0 L 375.168 0" fill="none" stroke="#000000" stroke-width="4.4000001" stroke-linecap="round" stroke-linejoin="round" marker-end="url(#CustomMarker-02)" transform="matrix(0.227273 0 0 0.227273 101.525 131.992)" />
	<path d="M -174.278 0 L 174.278 0" fill="none" stroke="#FF3600" stroke-width="4.4000001" stroke-linecap="round" stroke-linejoin="round" transform="matrix(0.227273 0 0 0.227273 55.4615 131.992)" />
	<path d="M -174.277 0 L 174.278 0" fill="none" stroke="#FF3600" stroke-width="4.4000001" stroke-linecap="round" stroke-linejoin="round" transform="matrix(0.227273 0 0 0.227273 135.925 77.0738)" />
	<path d="M 0 -120.82 L 0 120.819" fill="none" stroke="#FF4800" stroke-width="2.20000005" stroke-linecap="round" stroke-linejoin="round" stroke-dasharray="7.711, 5.489" transform="matrix(0.227273 0 0 0.227273 96.3164 104.533)" />
	<g transform="matrix(1 0 -0 1 192.107 122.385)">
		<svg width="41.9408379" height="38.8559914">
			<defs />
			<path d="M 12.961 3.70342 C 12.9016 3.86094, 12.7966 3.93946, 12.6454 3.93897, 12.2141 3.93946, 11.8043 4.03368, 11.4162 4.22163, 11.028 4.40025, 10.6747 4.67211, 10.3567 5.03819 L 7.48598 8.21807, 9.35416 13.1567 C 9.40814 13.2931, 9.46064 13.406, 9.51168 13.4948, 9.56271 13.5841, 9.63142 13.6494, 9.71778 13.6906, 9.81495 13.7382, 9.95137 13.7657, 10.1266 13.7735, 10.3017 13.7814, 10.4946 13.7853, 10.7046 13.7848, 10.8504 13.7853, 10.9284 13.8481, 10.9392 13.9733, 10.9392 14.0052, 10.9338 14.039, 10.923 14.0753 L 10.8906 14.201 C 10.8312 14.358, 10.7262 14.4365, 10.5751 14.4365, 10.0363 14.4051, 9.49941 14.3894, 8.9655 14.3894 L 8.70689 14.3894 C 8.07632 14.4002, 7.44574 14.4159, 6.81467 14.4365, 6.66353 14.4365, 6.58795 14.3688, 6.58795 14.2324 L 6.58795 14.1617, 6.63654 14.0282 C 6.66892 13.8614, 6.76609 13.7799, 6.92802 13.7848, 7.05758 13.7853, 7.18418 13.7696, 7.30784 13.7382, 7.432 13.7068, 7.55075 13.6572, 7.66362 13.5885, 7.77697 13.5105, 7.83095 13.4502, 7.82556 13.408 L 7.82556 13.3923, 6.33719 9.49002, 3.19951 12.984 C 3.08665 13.1101, 3.03267 13.2303, 3.03807 13.3451, 3.03807 13.3981, 3.05181 13.4531, 3.07831 13.51, 3.16467 13.6936, 3.34526 13.7853, 3.62006 13.7848, 3.77121 13.7853, 3.84678 13.8584, 3.84678 14.0047 L 3.84678 14.0596, 3.81439 14.201 C 3.75501 14.358, 3.65245 14.4365, 3.50671 14.4365, 2.96789 14.4159, 2.42614 14.4002, 1.88143 14.3894 L 1.64687 14.3894 C 1.18363 14.3894, 0.709097 14.4051, 0.223772 14.4365, 0.143294 14.4365, 0.0839163 14.4105, 0.0456399 14.358, 0.013743 14.3271, -0.0024509 14.2903, -0.00294162 14.2481, -0.0024509 14.2172, 0.00294706 14.1857, 0.0132522 14.1539 L 0.0456399 14.0361 C 0.0893142 13.8638, 0.191875 13.7799, 0.352832 13.7848, 0.557954 13.7853, 0.763076 13.7632, 0.967708 13.7186, 1.17283 13.6744, 1.37746 13.6047, 1.58258 13.5105, 1.78771 13.4163, 1.97909 13.3, 2.15673 13.1611, 2.33437 13.0227, 2.49631 12.8667, 2.64156 12.6935 L 6.11097 8.8619, 4.47736 4.56709 C 4.42338 4.43656, 4.37381 4.32713, 4.32769 4.23782, 4.28205 4.149, 4.21335 4.08324, 4.12158 4.04104, 4.02442 3.99442, 3.88849 3.96596, 3.7133 3.95516, 3.53811 3.94486, 3.34526 3.93946, 3.13474 3.93897, 3.05426 3.93946, 2.99488 3.91345, 2.9571 3.86045, 2.92471 3.82954, 2.90852 3.79028, 2.90852 3.74268, 2.90852 3.71176, 2.91686 3.68281, 2.93256 3.65631 L 2.9571 3.53069 C 3.01647 3.37415, 3.12149 3.29563, 3.27263 3.29514, 3.81194 3.32704, 4.34584 3.34274, 4.87386 3.34225, 4.95483 3.34274, 5.04659 3.33734, 5.14866 3.32655, 5.77434 3.32704, 6.40246 3.31673, 7.03304 3.29514, 7.18418 3.29563, 7.25926 3.3663, 7.25926 3.50713 L 7.25926 3.56995, 7.21068 3.70342 C 7.17829 3.86094, 7.07868 3.93946, 6.91183 3.93897, 6.63163 3.93946, 6.38872 4.00767, 6.1836 4.14311, 6.07073 4.21181, 6.01675 4.26677, 6.02215 4.30799 L 6.02215 4.3237, 7.25926 7.58209, 9.8066 4.73198 C 9.88217 4.65935, 9.9283 4.57298, 9.9445 4.47288, 9.95529 4.44196, 9.96069 4.41301, 9.96069 4.38651, 9.96069 4.32958, 9.94744 4.27953, 9.91996 4.23733, 9.82869 4.03908, 9.6427 3.93946, 9.36201 3.93897, 9.22215 3.93946, 9.15198 3.8688, 9.15198 3.72698 L 9.15198 3.67202, 9.18388 3.53069 C 9.24374 3.37415, 9.34876 3.29563, 9.49941 3.29514, 10.0387 3.31673, 10.5834 3.32704, 11.133 3.32655, 11.2086 3.33734, 11.2817 3.34274, 11.3514 3.34225, 11.8151 3.34274, 12.2843 3.32704, 12.7588 3.29514, 12.9045 3.29563, 12.9826 3.3663, 12.9934 3.50713 L 12.9934 3.56209 Z" stroke="none" fill="#404080" />
			<rect />
		</svg>
	</g>
	<g transform="matrix(1 0 -0 1 8.5 8.49999)">
		<svg width="44.9695702" height="44.9039879">
			<defs />
			<path d="M 7.47739 3.69557 C 7.46169 3.76427, 7.42537 3.82169, 7.36845 3.8688, 7.31153 3.9159, 7.24282 3.93946, 7.16185 3.93897, 6.90864 3.93946, 6.66083 3.94486, 6.41792 3.95516, 6.1755 3.96596, 6.00031 3.99442, 5.89235 4.04104, 5.77949 4.07833, 5.69558 4.21426, 5.6416 4.44932 L 3.36906 13.298 C 3.34747 13.3981, 3.33667 13.4845, 3.33667 13.5571, 3.33667 13.6307, 3.35041 13.6754, 3.3774 13.6906, 3.45297 13.7382, 3.60902 13.7657, 3.84653 13.7735, 4.08404 13.7814, 4.33431 13.7853, 4.59832 13.7848, 4.74946 13.7853, 4.82503 13.8481, 4.82503 13.9733, 4.82503 14.0052, 4.81964 14.039, 4.80884 14.0753 L 4.77645 14.201 C 4.71707 14.358, 4.61451 14.4365, 4.46877 14.4365, 3.77341 14.4051, 3.06972 14.3894, 2.35817 14.3894, 1.65202 14.3894, 0.935075 14.4051, 0.206843 14.4365, 0.0674777 14.4365, -0.00269562 14.3688, -0.00318635 14.2324 L -0.00318635 14.1696, 0.0292014 14.0361 C 0.0728757 13.8638, 0.17789 13.7799, 0.344736 13.7848, 0.608745 13.7853, 0.862448 13.7814, 1.10487 13.7735, 1.34728 13.7657, 1.52247 13.7382, 1.63043 13.6906, 1.72759 13.6386, 1.80611 13.4973, 1.86499 13.2666 L 4.15372 4.41791 C 4.17532 4.31879, 4.18611 4.24027, 4.18611 4.18237, 4.18611 4.10434, 4.17286 4.05478, 4.14538 4.03319, 4.05951 3.99197, 3.89806 3.96596, 3.66055 3.95516, 3.42304 3.94486, 3.17768 3.93946, 2.92446 3.93897, 2.77332 3.93946, 2.69775 3.8688, 2.69775 3.72698 L 2.69775 3.67202, 2.73014 3.53069 C 2.78952 3.37415, 2.89208 3.29563, 3.03733 3.29514, 3.74397 3.31673, 4.45307 3.32704, 5.16461 3.32655, 5.88205 3.32704, 6.5936 3.31673, 7.29926 3.29514, 7.37483 3.29563, 7.4396 3.32164, 7.49358 3.37366, 7.51517 3.41586, 7.52597 3.45512, 7.52597 3.49143, 7.52597 3.52333, 7.51812 3.55228, 7.50143 3.5778 Z" stroke="none" fill="#404080" />
			<path d="M 3.17817 2.61728 C 3.14519 2.70522, 3.08776 2.74919, 3.00614 2.74919, 2.70441 2.7316, 2.40404 2.72281, 2.10506 2.72281 L 1.95584 2.72281 C 1.60271 2.72885, 1.24794 2.73765, 0.891795 2.74919, 0.810452 2.74919, 0.766484 2.71127, 0.760438 2.63487 L 0.760438 2.5997, 0.778575 2.52495 C 0.802758 2.42849, 0.861566 2.3815, 0.954999 2.38425, 1.06684 2.38452, 1.1666 2.38095, 1.25399 2.37353, 1.34137 2.36639, 1.42601 2.34056, 1.50736 2.29631, 1.53759 2.28202, 1.56342 2.26141, 1.5843 2.23476, 1.59639 2.21167, 1.60409 2.18804, 1.60711 2.16441 L 1.60711 2.13802, 1.49829 0.678262, -0.548182 0.678262, -1.26817 1.90939 C -1.30719 1.98001, -1.32698 2.04459, -1.32698 2.10285, -1.32698 2.15286, -1.31186 2.19848, -1.28164 2.23915, -1.21513 2.33616, -1.09147 2.38452, -0.910375 2.38425, -0.828758 2.38452, -0.785064 2.4197, -0.779018 2.48977, -0.779018 2.50764, -0.782041 2.5266, -0.788086 2.54693 L -0.806224 2.61728 C -0.8392 2.70522, -0.898283 2.74919, -0.982923 2.74919, -1.26048 2.73765, -1.53528 2.72885, -1.80706 2.72281 L -1.92908 2.72281 C -2.16458 2.72281, -2.40311 2.7316, -2.64467 2.74919, -2.68973 2.74919, -2.72299 2.73463, -2.74415 2.70522, -2.76228 2.68791, -2.77135 2.6673, -2.77135 2.64367, -2.77135 2.62635, -2.76833 2.60877, -2.76228 2.5909 L -2.74415 2.52495 C -2.71996 2.42849, -2.66116 2.3815, -2.56772 2.38425, -2.47099 2.38452, -2.37563 2.37436, -2.2822 2.35375, -2.18877 2.33341, -2.1011 2.29659, -2.01976 2.24382, -1.93814 2.19106, -1.86257 2.12731, -1.79332 2.05256, -1.7238 1.97781, -1.66197 1.89345, -1.60783 1.79947 L 1.58897 -3.67464 C 1.64339 -3.75654, 1.71264 -3.79611, 1.79728 -3.79336 L 1.88329 -3.79336 C 1.98002 -3.79308, 2.03416 -3.74774, 2.04625 -3.65706 L 2.44472 2.07207 C 2.45076 2.14847, 2.45983 2.20645, 2.47192 2.24602, 2.48401 2.28559, 2.50517 2.31417, 2.5354 2.33149, 2.57772 2.35814, 2.6478 2.37353, 2.7459 2.37793, 2.84401 2.38233, 2.95503 2.38452, 3.07869 2.38425, 3.16333 2.38452, 3.20538 2.4197, 3.20538 2.48977, 3.20538 2.50764, 3.20235 2.5266, 3.19631 2.54693 Z M 1.28119 -2.43912 L -0.330812 0.322116, 1.47136 0.322116 Z" stroke="none" fill="#404080" transform="matrix(1.12 0 0 1 10.3305 13.9768)" />
			<rect />
		</svg>
	</g>
	<path d="M -265.043 179.834 L 265.043 -179.834" fill="none" stroke="#2400E5" stroke-width="4.4000001" stroke-linecap="round" stroke-linejoin="round" transform="matrix(0.227273 0 0 0.227273 75.6878 91.1203)" />
	<path d="M -171.103 0 L 171.103 0" fill="none" stroke="#000000" stroke-width="2.20000005" stroke-linecap="round" stroke-linejoin="round" stroke-dasharray="7.711, 5.489" transform="matrix(0.227273 0 0 0.227273 56.1831 77.0738)" />
	<g transform="matrix(1 0 -0 1 2.31992 67.4674)">
		<svg width="20.9560547" height="38.8559914">
			<defs />
			<path d="M 5.84808 14.3717 C 4.87616 14.3409, 3.93022 14.3255, 3.01072 14.3255, 2.09171 14.3255, 1.14576 14.3409, 0.173363 14.3717 L 0.173363 13.7099, 0.720637 13.7099 C 0.894725 13.7104, 1.05872 13.708, 1.21164 13.7027, 1.36505 13.6979, 1.51029 13.6849, 1.64783 13.6642, 1.78537 13.644, 1.90415 13.6234, 2.00418 13.6022, 2.08882 13.5873, 2.15903 13.5402, 2.21434 13.4603, 2.27012 13.381, 2.29753 13.2925, 2.29753 13.1944 L 2.29753 4.52265 C 2.03352 4.65154, 1.70842 4.74916, 1.32273 4.81553, 0.937045 4.88237, 0.514327 4.91556, 0.0545789 4.91508 L 0.0545789 4.26104 C 0.688897 4.26152, 1.27416 4.18602, 1.81037 4.03453, 2.34659 3.88353, 2.81018 3.59979, 3.20116 3.18381 L 3.4469 3.18381 C 3.62099 3.18429, 3.70804 3.26893, 3.70804 3.43773 L 3.70804 13.1944 C 3.70804 13.2973, 3.73449 13.3872, 3.78739 13.4642, 3.84029 13.5411, 3.91723 13.5873, 4.01726 13.6022, 4.1019 13.6234, 4.21059 13.644, 4.34236 13.6642, 4.47461 13.6849, 4.62369 13.6979, 4.79008 13.7027, 4.95648 13.708, 5.11902 13.7104, 5.27724 13.7099 L 5.84808 13.7099, 5.84808 14.3717 Z" stroke="none" fill="#B300B3" />
			<rect />
		</svg>
	</g>
	<g transform="matrix(1 0 -0 1 92.6895 129.734)">
		<svg width="27.0135174" height="26.975996">
			<defs />
			<path d="M 7.25141 12.0496 C 7.18712 12.3068, 7.1145 12.5816, 7.03353 12.8745, 6.95256 13.168, 6.8446 13.4399, 6.70965 13.6911, 6.57519 13.9424, 6.4054 14.1597, 6.20028 14.3428, 5.99565 14.5258, 5.73949 14.6171, 5.43181 14.6171, 5.02255 14.6171, 4.69474 14.5037, 4.44938 14.276, 4.20402 14.0483, 4.06269 13.8167, 4.02491 13.5807, 3.84138 13.7907, 3.56804 14.016, 3.20393 14.2564, 2.8403 14.4969, 2.45607 14.6171, 2.05171 14.6171, 1.62576 14.6171, 1.26852 14.5101, 0.979973 14.2957, 0.691429 14.0812, 0.466678 13.8113, 0.304739 13.4865, 0.110904 13.0998, 0.00834268 12.6836, -0.00245327 12.2381 L -0.00245327 12.1203 C -0.00245327 11.7071, 0.0544706 11.2939, 0.167337 10.8798, 0.296888 10.4249, 0.477473 9.97486, 0.709095 9.52977, 0.941206 9.08518, 1.2484 8.6715, 1.63116 8.28873, 1.94424 7.97516, 2.30149 7.71115, 2.7029 7.49622, 3.10431 7.28177, 3.51259 7.1743, 3.92774 7.17381, 4.28892 7.1743, 4.58286 7.26999, 4.80908 7.46089, 5.0358 7.65227, 5.1786 7.81028, 5.23797 7.93541 L 5.20559 8.06889 C 5.24337 7.87555, 5.33366 7.72931, 5.47646 7.62969, 5.61976 7.53057, 5.76403 7.48052, 5.90928 7.48002, 6.07613 7.48052, 6.21647 7.53008, 6.32983 7.6292, 6.4 7.70821, 6.43779 7.81273, 6.4427 7.94327, 6.4427 7.99087, 6.4373 8.04337, 6.4265 8.1003 L 5.26202 12.6385 C 5.20804 12.8534, 5.17025 13.0551, 5.14866 13.2431, 5.13836 13.3378, 5.13296 13.4241, 5.13296 13.5022, 5.13296 13.5709, 5.13836 13.644, 5.14866 13.722, 5.16535 13.8481, 5.20313 13.9424, 5.26202 14.0052, 5.3214 14.068, 5.40482 14.0994, 5.51278 14.0989, 5.62614 14.0994, 5.73262 14.0523, 5.83224 13.9581, 5.93235 13.8638, 6.02411 13.724, 6.10753 13.538, 6.19096 13.3525, 6.27045 13.1297, 6.34603 12.8706, 6.4216 12.6115, 6.49962 12.3303, 6.5801 12.0261, 6.61249 11.8906, 6.70425 11.8224, 6.8554 11.8219 L 7.04138 11.8219 C 7.18173 11.8224, 7.25141 11.8798, 7.25141 11.9947 L 7.25141 12.0496 Z M 4.93863 9.16026 C 4.91704 9.06653, 4.89839 8.96839, 4.8822 8.86632, 4.86601 8.76425, 4.84147 8.66365, 4.80908 8.56354, 4.72321 8.31818, 4.60052 8.11257, 4.44153 7.94768, 4.28254 7.7828, 4.08134 7.70036, 3.83892 7.69987, 3.6127 7.70036, 3.38893 7.78182, 3.16761 7.94376, 2.94679 8.10619, 2.74461 8.31523, 2.56108 8.57139, 2.30247 8.93305, 2.10864 9.30895, 1.97908 9.69858, 1.84953 10.0887, 1.73078 10.4955, 1.62282 10.919, 1.51535 11.3381, 1.42653 11.7439, 1.35587 12.136, 1.31317 12.3352, 1.29158 12.5237, 1.29158 12.7013, 1.29158 12.8902, 1.31317 13.0733, 1.35587 13.2509, 1.40494 13.4973, 1.49229 13.7004, 1.61889 13.8599, 1.7455 14.0199, 1.92216 14.0994, 2.14838 14.0989, 2.39669 14.0994, 2.64598 14.013, 2.89674 13.8403, 3.1475 13.6675, 3.38059 13.4556, 3.59602 13.2038, 3.68238 13.0998, 3.76482 12.9992, 3.84285 12.902, 3.92136 12.8053, 3.99007 12.7018, 4.04895 12.5914 L 4.93863 9.16026 Z" stroke="none" fill="#404080" />
			<rect />
		</svg>
	</g>
</svg>
