<?xml version="1.0"?>
<svg xmlns="http://www.w3.org/2000/svg" xmlns:xlink="http://www.w3.org/1999/xlink" width="309.642853" height="204.285721">
	<defs>
		<marker id="CustomMarker-01" markerUnits="strokeWidth" markerWidth="15.000001" markerHeight="9" viewBox="-15 -4.5 15 9" orient="auto-start-reverse">
			<path d="M 0 -0 L -10 -3, -8 -0.5, -8 0.5, -10 3 Z" fill="#000000" stroke="#000000" stroke-linejoin="round" />
		</marker>
		<marker id="CustomMarker-02" markerUnits="strokeWidth" markerWidth="15.000001" markerHeight="9" viewBox="-15 -4.5 15 9" orient="auto-start-reverse">
			<path d="M 0 -0 L -10 -3, -8 -0.5, -8 0.5, -10 3 Z" fill="#000000" stroke="#000000" stroke-linejoin="round" />
		</marker>
	</defs>
	<path d="M -143.043 -250.325 L -142.969 -250.064, -142.896 -249.803, -142.823 -249.542, -142.749 -249.281, -142.676 -249.02, -142.603 -248.76, -142.529 -248.5, -142.456 -248.239, -142.382 -247.979, -142.309 -247.719, -142.235 -247.46, -142.162 -247.2, -142.088 -246.941, -142.015 -246.681, -141.941 -246.422, -141.868 -246.163, -141.794 -245.904, -141.72 -245.646, -141.647 -245.387, -141.573 -245.128, -141.499 -244.87, -141.426 -244.612, -141.352 -244.354, -141.278 -244.096, -141.204 -243.838, -141.131 -243.581, -141.057 -243.323, -140.983 -243.066, -140.909 -242.809, -140.835 -242.552, -140.761 -242.295, -140.687 -242.038, -140.613 -241.782, -140.539 -241.525, -140.466 -241.269, -140.392 -241.013, -140.318 -240.757, -140.244 -240.501, -140.169 -240.245, -140.095 -239.989, -140.021 -239.734, -139.947 -239.478, -139.873 -239.223, -139.799 -238.968, -139.725 -238.713, -139.651 -238.459, -139.577 -238.204, -139.502 -237.949, -139.428 -237.695, -139.354 -237.441, -139.28 -237.187, -139.206 -236.933, -139.131 -236.679, -139.057 -236.425, -138.983 -236.172, -138.908 -235.919, -138.834 -235.665, -138.76 -235.412, -138.685 -235.159, -138.611 -234.907, -138.537 -234.654, -138.462 -234.401, -138.388 -234.149, -138.314 -233.897, -138.239 -233.645, -138.165 -233.393, -138.09 -233.141, -138.016 -232.889, -137.941 -232.638, -137.867 -232.386, -137.792 -232.135, -137.718 -231.884, -137.643 -231.633, -137.569 -231.382, -137.494 -231.131, -137.42 -230.881, -137.345 -230.63, -137.271 -230.38, -137.196 -230.13, -137.121 -229.88, -137.047 -229.63, -136.972 -229.38, -136.897 -229.131, -136.823 -228.881, -136.748 -228.632, -136.674 -228.383, -136.599 -228.134, -136.524 -227.885, -136.45 -227.636, -136.375 -227.388, -136.3 -227.139, -136.225 -226.891, -136.151 -226.643, -136.076 -226.395, -136.001 -226.147, -135.926 -225.899, -135.852 -225.651, -135.777 -225.404, -135.702 -225.156, -135.627 -224.909, -135.553 -224.662, -135.478 -224.415, -135.403 -224.168, -135.328 -223.922, -135.253 -223.675, -135.179 -223.429, -135.104 -223.183, -135.029 -222.936, -134.954 -222.69, -134.879 -222.445, -134.804 -222.199, -134.73 -221.953, -134.655 -221.708, -134.58 -221.463, -134.505 -221.217, -134.43 -220.972, -134.355 -220.728, -134.28 -220.483, -134.205 -220.238, -134.131 -219.994, -134.056 -219.749, -133.981 -219.505, -133.906 -219.261, -133.831 -219.017, -133.756 -218.773, -133.681 -218.53, -133.606 -218.286, -133.531 -218.043, -133.456 -217.8, -133.381 -217.557, -133.306 -217.314, -133.231 -217.071, -133.157 -216.828, -133.082 -216.586, -133.007 -216.343, -132.932 -216.101, -132.857 -215.859, -132.782 -215.617, -132.707 -215.375, -132.632 -215.133, -132.557 -214.892, -132.482 -214.65, -132.407 -214.409, -132.332 -214.168, -132.257 -213.927, -132.182 -213.686, -132.107 -213.445, -132.032 -213.204, -131.957 -212.964, -131.882 -212.723, -131.807 -212.483, -131.732 -212.243, -131.657 -212.003, -131.582 -211.763, -131.507 -211.524, -131.432 -211.284, -131.357 -211.045, -131.282 -210.805, -131.207 -210.566, -131.132 -210.327, -131.057 -210.088, -130.983 -209.85, -130.908 -209.611, -130.833 -209.372, -130.758 -209.134, -130.683 -208.896, -130.608 -208.658, -130.533 -208.42, -130.458 -208.182, -130.383 -207.945, -130.308 -207.707, -130.233 -207.47, -130.158 -207.232, -130.083 -206.995, -130.008 -206.758, -129.933 -206.521, -129.858 -206.285, -129.783 -206.048, -129.708 -205.812, -129.633 -205.575, -129.559 -205.339, -129.484 -205.103, -129.409 -204.867, -129.334 -204.632, -129.259 -204.396, -129.184 -204.16, -129.109 -203.925, -129.034 -203.69, -128.959 -203.455, -128.884 -203.22, -128.81 -202.985, -128.735 -202.75, -128.66 -202.516, -128.585 -202.281, -128.51 -202.047, -128.435 -201.813, -128.36 -201.579, -128.286 -201.345, -128.211 -201.111, -128.136 -200.878, -128.061 -200.644, -127.986 -200.411, -127.912 -200.178, -127.837 -199.945, -127.762 -199.712, -127.687 -199.479, -127.612 -199.246, -127.538 -199.014, -127.463 -198.781, -127.388 -198.549, -127.313 -198.317, -127.239 -198.085, -127.164 -197.853, -127.089 -197.621, -127.014 -197.389, -126.94 -197.158, -126.865 -196.927, -126.79 -196.695, -126.716 -196.464, -126.641 -196.233, -126.566 -196.003, -126.492 -195.772, -126.417 -195.541, -126.342 -195.311, -126.268 -195.081, -126.193 -194.851, -126.118 -194.621, -126.044 -194.391, -125.969 -194.161, -125.895 -193.931, -125.82 -193.702, -125.745 -193.473, -125.671 -193.243, -125.596 -193.014, -125.522 -192.785, -125.447 -192.557, -125.373 -192.328, -125.298 -192.099, -125.224 -191.871, -125.149 -191.643, -125.075 -191.414, -125 -191.186, -124.926 -190.959, -124.851 -190.731, -124.777 -190.503, -124.703 -190.276, -124.628 -190.048, -124.554 -189.821, -124.479 -189.594, -124.405 -189.367, -124.331 -189.14, -124.256 -188.914, -124.182 -188.687, -124.108 -188.461, -124.033 -188.234, -123.959 -188.008, -123.885 -187.782, -123.81 -187.556, -123.736 -187.331, -123.662 -187.105, -123.588 -186.879, -123.513 -186.654, -123.439 -186.429, -123.365 -186.204, -123.291 -185.979, -123.217 -185.754, -123.143 -185.529, -123.068 -185.305, -122.994 -185.08, -122.92 -184.856, -122.846 -184.632, -122.772 -184.408, -122.698 -184.184, -122.624 -183.96, -122.55 -183.736, -122.476 -183.513, -122.402 -183.289, -122.328 -183.066, -122.253 -182.843, -122.179 -182.62, -122.105 -182.397, -122.031 -182.175, -121.957 -181.952, -121.883 -181.73, -121.808 -181.508, -121.734 -181.286, -121.66 -181.064, -121.585 -180.842, -121.511 -180.62, -121.437 -180.399, -121.362 -180.177, -121.288 -179.956, -121.214 -179.735, -121.139 -179.514, -121.065 -179.293, -120.99 -179.073, -120.916 -178.852, -120.841 -178.632, -120.767 -178.412, -120.692 -178.191, -120.618 -177.971, -120.543 -177.752, -120.469 -177.532, -120.394 -177.312, -120.32 -177.093, -120.245 -176.874, -120.17 -176.655, -120.096 -176.436, -120.021 -176.217, -119.947 -175.998, -119.872 -175.78, -119.797 -175.561, -119.723 -175.343, -119.648 -175.125, -119.573 -174.907, -119.498 -174.689, -119.424 -174.471, -119.349 -174.254, -119.274 -174.036, -119.199 -173.819, -119.125 -173.602, -119.05 -173.385, -118.975 -173.168, -118.9 -172.951, -118.825 -172.735, -118.75 -172.518, -118.676 -172.302, -118.601 -172.086, -118.526 -171.87, -118.451 -171.654, -118.376 -171.438, -118.301 -171.222, -118.226 -171.007, -118.151 -170.791, -118.076 -170.576, -118.002 -170.361, -117.927 -170.146, -117.852 -169.931, -117.777 -169.717, -117.702 -169.502, -117.627 -169.288, -117.552 -169.074, -117.477 -168.86, -117.402 -168.646, -117.327 -168.432, -117.252 -168.218, -117.177 -168.005, -117.102 -167.791, -117.027 -167.578, -116.952 -167.365, -116.877 -167.152, -116.802 -166.939, -116.727 -166.726, -116.651 -166.513, -116.576 -166.301, -116.501 -166.089, -116.426 -165.877, -116.351 -165.664, -116.276 -165.453, -116.201 -165.241, -116.126 -165.029, -116.051 -164.818, -115.976 -164.606, -115.901 -164.395, -115.826 -164.184, -115.75 -163.973, -115.675 -163.762, -115.6 -163.552, -115.525 -163.341, -115.45 -163.131, -115.375 -162.92, -115.3 -162.71, -115.225 -162.5, -115.15 -162.29, -115.074 -162.081, -114.999 -161.871, -114.924 -161.662, -114.849 -161.452, -114.774 -161.243, -114.699 -161.034, -114.624 -160.825, -114.549 -160.616, -114.473 -160.408, -114.398 -160.199, -114.323 -159.991, -114.248 -159.783, -114.173 -159.574, -114.098 -159.367, -114.023 -159.159, -113.948 -158.951, -113.872 -158.743, -113.797 -158.536, -113.722 -158.329, -113.647 -158.122, -113.572 -157.915, -113.497 -157.708, -113.422 -157.501, -113.347 -157.294, -113.272 -157.088, -113.197 -156.881, -113.121 -156.675, -113.046 -156.469, -112.971 -156.263, -112.896 -156.057, -112.821 -155.852, -112.746 -155.646, -112.671 -155.441, -112.596 -155.235, -112.521 -155.03, -112.446 -154.825, -112.371 -154.62, -112.296 -154.416, -112.221 -154.211, -112.146 -154.007, -112.071 -153.802, -111.996 -153.598, -111.921 -153.394, -111.846 -153.19, -111.771 -152.986, -111.696 -152.783, -111.621 -152.579, -111.546 -152.376, -111.471 -152.172, -111.396 -151.969, -111.321 -151.766, -111.246 -151.563, -111.171 -151.361, -111.096 -151.158, -111.021 -150.956, -110.946 -150.753, -110.871 -150.551, -110.796 -150.349, -110.721 -150.147, -110.646 -149.945, -110.572 -149.743, -110.497 -149.542, -110.422 -149.34, -110.347 -149.139, -110.272 -148.938, -110.197 -148.737, -110.122 -148.536, -110.048 -148.335, -109.973 -148.135, -109.898 -147.934, -109.823 -147.734, -109.748 -147.534, -109.674 -147.334, -109.599 -147.134, -109.524 -146.934, -109.449 -146.734, -109.375 -146.535, -109.3 -146.335, -109.225 -146.136, -109.151 -145.937, -109.076 -145.738, -109.001 -145.539, -108.927 -145.34, -108.852 -145.141, -108.777 -144.943, -108.703 -144.744, -108.628 -144.546, -108.554 -144.348, -108.479 -144.15, -108.405 -143.952, -108.33 -143.754, -108.256 -143.557, -108.181 -143.359, -108.107 -143.162, -108.032 -142.965, -107.958 -142.768, -107.883 -142.571, -107.809 -142.374, -107.734 -142.177, -107.66 -141.981, -107.585 -141.784, -107.511 -141.588, -107.437 -141.392, -107.362 -141.196, -107.288 -141, -107.214 -140.804, -107.139 -140.609, -107.065 -140.413, -106.991 -140.218, -106.917 -140.023, -106.842 -139.827, -106.768 -139.632, -106.694 -139.438, -106.62 -139.243, -106.546 -139.048, -106.471 -138.854, -106.397 -138.66, -106.323 -138.465, -106.249 -138.271, -106.175 -138.077, -106.101 -137.884, -106.027 -137.69, -105.953 -137.496, -105.879 -137.303, -105.805 -137.11, -105.731 -136.916, -105.657 -136.723, -105.583 -136.531, -105.509 -136.338, -105.435 -136.145, -105.361 -135.953, -105.287 -135.76, -105.214 -135.568, -105.14 -135.376, -105.066 -135.184, -104.992 -134.992, -104.918 -134.8, -104.845 -134.609, -104.771 -134.417, -104.697 -134.226, -104.624 -134.035, -104.55 -133.844, -104.476 -133.653, -104.403 -133.462, -104.329 -133.271, -104.255 -133.08, -104.182 -132.89, -104.108 -132.7, -104.035 -132.51, -103.961 -132.319, -103.888 -132.13, -103.814 -131.94, -103.741 -131.75, -103.668 -131.561, -103.594 -131.371, -103.521 -131.182, -103.448 -130.993, -103.374 -130.804, -103.301 -130.615, -103.228 -130.426, -103.155 -130.237, -103.081 -130.049, -103.008 -129.86, -102.935 -129.672, -102.862 -129.484, -102.789 -129.296, -102.716 -129.108, -102.643 -128.921, -102.569 -128.733, -102.496 -128.545, -102.423 -128.358, -102.35 -128.171, -102.278 -127.984, -102.205 -127.797, -102.132 -127.61, -102.059 -127.423, -101.986 -127.237, -101.913 -127.05, -101.84 -126.864, -101.767 -126.678, -101.693 -126.492, -101.62 -126.306, -101.547 -126.121, -101.474 -125.935, -101.4 -125.75, -101.327 -125.565, -101.254 -125.38, -101.18 -125.195, -101.107 -125.01, -101.033 -124.826, -100.96 -124.641, -100.886 -124.457, -100.812 -124.273, -100.739 -124.089, -100.665 -123.905, -100.591 -123.721, -100.517 -123.538, -100.444 -123.355, -100.37 -123.171, -100.296 -122.988, -100.222 -122.805, -100.148 -122.623, -100.074 -122.44, -100 -122.258, -99.926 -122.075, -99.852 -121.893, -99.7778 -121.711, -99.7037 -121.529, -99.6295 -121.347, -99.5553 -121.166, -99.4811 -120.984, -99.4069 -120.803, -99.3326 -120.622, -99.2582 -120.441, -99.1839 -120.26, -99.1095 -120.079, -99.0351 -119.899, -98.9607 -119.719, -98.8862 -119.538, -98.8118 -119.358, -98.7372 -119.178, -98.6627 -118.998, -98.5881 -118.819, -98.5136 -118.639, -98.4389 -118.46, -98.3643 -118.28, -98.2896 -118.101, -98.215 -117.922, -98.1403 -117.744, -98.0655 -117.565, -97.9908 -117.386, -97.916 -117.208, -97.8412 -117.03, -97.7664 -116.852, -97.6915 -116.674, -97.6167 -116.496, -97.5418 -116.318, -97.4669 -116.141, -97.392 -115.963, -97.317 -115.786, -97.2421 -115.609, -97.1671 -115.432, -97.0921 -115.255, -97.0171 -115.079, -96.942 -114.902, -96.867 -114.726, -96.7919 -114.549, -96.7168 -114.373, -96.6417 -114.197, -96.5666 -114.022, -96.4915 -113.846, -96.4163 -113.67, -96.3412 -113.495, -96.266 -113.32, -96.1908 -113.145, -96.1156 -112.97, -96.0404 -112.795, -95.9651 -112.62, -95.8899 -112.446, -95.8146 -112.271, -95.7394 -112.097, -95.6641 -111.923, -95.5888 -111.749, -95.5135 -111.575, -95.4382 -111.401, -95.3628 -111.228, -95.2875 -111.054, -95.2122 -110.881, -95.1368 -110.708, -95.0614 -110.535, -94.9861 -110.362, -94.9107 -110.189, -94.8353 -110.016, -94.7599 -109.844, -94.6845 -109.671, -94.6091 -109.499, -94.5336 -109.327, -94.4582 -109.155, -94.3828 -108.984, -94.3073 -108.812, -94.2319 -108.64, -94.1564 -108.469, -94.081 -108.298, -94.0055 -108.127, -93.9301 -107.956, -93.8546 -107.785, -93.7791 -107.614, -93.7037 -107.444, -93.6282 -107.273, -93.5527 -107.103, -93.4772 -106.933, -93.4017 -106.763, -93.3262 -106.593, -93.2507 -106.423, -93.1753 -106.253, -93.0998 -106.084, -93.0243 -105.915, -92.9488 -105.745, -92.8733 -105.576, -92.7978 -105.407, -92.7223 -105.239, -92.6468 -105.07, -92.5713 -104.901, -92.4958 -104.733, -92.4204 -104.565, -92.3449 -104.397, -92.2694 -104.229, -92.1939 -104.061, -92.1184 -103.893, -92.043 -103.725, -91.9675 -103.558, -91.892 -103.391, -91.8166 -103.223, -91.7411 -103.056, -91.6657 -102.889, -91.5902 -102.723, -91.5148 -102.556, -91.4394 -102.389, -91.3639 -102.223, -91.2885 -102.057, -91.2131 -101.891, -91.1377 -101.725, -91.0623 -101.559, -90.9869 -101.393, -90.9115 -101.227, -90.8362 -101.062, -90.7608 -100.897, -90.6854 -100.731, -90.6101 -100.566, -90.5347 -100.401, -90.4594 -100.236, -90.3841 -100.072, -90.3088 -99.9072, -90.2335 -99.7428, -90.1582 -99.5785, -90.0829 -99.4143, -90.0077 -99.2503, -89.9324 -99.0864, -89.8572 -98.9226, -89.7819 -98.759, -89.7067 -98.5955, -89.6315 -98.4321, -89.5563 -98.2688, -89.4811 -98.1057, -89.406 -97.9427, -89.3308 -97.7798, -89.2557 -97.6171, -89.1805 -97.4545, -89.1054 -97.292, -89.0303 -97.1297, -88.9553 -96.9675, -88.8802 -96.8054, -88.8052 -96.6434, -88.7301 -96.4816, -88.6551 -96.3199, -88.5801 -96.1583, -88.5051 -95.9969, -88.4302 -95.8356, -88.3552 -95.6744, -88.2803 -95.5133, -88.2054 -95.3524, -88.1305 -95.1916, -88.0556 -95.0309, -87.9808 -94.8704, -87.9059 -94.71, -87.8311 -94.5497, -87.7563 -94.3895, -87.6815 -94.2295, -87.6068 -94.0696, -87.532 -93.9098, -87.4573 -93.7502, -87.3826 -93.5907, -87.308 -93.4313, -87.2333 -93.272, -87.1587 -93.1129, -87.0841 -92.9538, -87.0095 -92.795, -86.9349 -92.6362, -86.8604 -92.4776, -86.7858 -92.3191, -86.7113 -92.1607, -86.6369 -92.0024, -86.5624 -91.8443, -86.488 -91.6863, -86.4136 -91.5285, -86.3392 -91.3707, -86.2649 -91.2131, -86.1905 -91.0556, -86.1162 -90.8983, -86.0419 -90.741, -85.9677 -90.5839, -85.8935 -90.4269, -85.8193 -90.2701, -85.7451 -90.1133, -85.6709 -89.9567, -85.5968 -89.8002, -85.5227 -89.6439, -85.4487 -89.4877, -85.3746 -89.3316, -85.3006 -89.1756, -85.2266 -89.0197, -85.1527 -88.864, -85.0787 -88.7084, -85.0048 -88.5529, -84.931 -88.3976, -84.8571 -88.2423, -84.7833 -88.0872, -84.7095 -87.9323, -84.6358 -87.7774, -84.5621 -87.6227, -84.4884 -87.4681, -84.4147 -87.3136, -84.3411 -87.1592, -84.2675 -87.005, -84.1939 -86.8509, -84.1204 -86.6969, -84.0469 -86.5431, -83.9734 -86.3894, -83.9 -86.2357, -83.8266 -86.0823, -83.7532 -85.9289, -83.6799 -85.7757, -83.6065 -85.6226, -83.5333 -85.4696, -83.46 -85.3167, -83.3868 -85.164, -83.3136 -85.0114, -83.2405 -84.8589, -83.1674 -84.7065, -83.0943 -84.5543, -83.0213 -84.4022, -82.9483 -84.2502, -82.8753 -84.0983, -82.8024 -83.9466, -82.7295 -83.7949, -82.6566 -83.6434, -82.5838 -83.4921, -82.511 -83.3408, -82.4383 -83.1897, -82.3656 -83.0387, -82.2929 -82.8878, -82.2203 -82.737, -82.1477 -82.5864, -82.0751 -82.4359, -82.0026 -82.2855, -81.9301 -82.1352, -81.8576 -81.9851, -81.7852 -81.8351, -81.7128 -81.6852, -81.6404 -81.5354, -81.5679 -81.3858, -81.4954 -81.2364, -81.4228 -81.0872, -81.3502 -80.9381, -81.2775 -80.7892, -81.2048 -80.6404, -81.132 -80.4918, -81.0591 -80.3433, -80.9862 -80.1951, -80.9132 -80.0469, -80.8402 -79.899, -80.7672 -79.7512, -80.6941 -79.6035, -80.6209 -79.456, -80.5477 -79.3087, -80.4744 -79.1616, -80.4011 -79.0145, -80.3278 -78.8677, -80.2544 -78.721, -80.1809 -78.5745, -80.1074 -78.4281, -80.0339 -78.2819, -79.9603 -78.1358, -79.8867 -77.9899, -79.813 -77.8441, -79.7393 -77.6985, -79.6655 -77.5531, -79.5917 -77.4078, -79.5179 -77.2627, -79.444 -77.1177, -79.37 -76.9729, -79.2961 -76.8282, -79.222 -76.6837, -79.148 -76.5393, -79.0739 -76.3951, -78.9998 -76.2511, -78.9256 -76.1072, -78.8514 -75.9634, -78.7771 -75.8198, -78.7029 -75.6764, -78.6285 -75.5331, -78.5542 -75.3899, -78.4798 -75.2469, -78.4054 -75.1041, -78.3309 -74.9614, -78.2564 -74.8189, -78.1819 -74.6765, -78.1073 -74.5343, -78.0327 -74.3922, -77.9581 -74.2502, -77.8834 -74.1084, -77.8087 -73.9668, -77.734 -73.8253, -77.6592 -73.684, -77.5844 -73.5428, -77.5096 -73.4017, -77.4348 -73.2608, -77.3599 -73.1201, -77.285 -72.9795, -77.2101 -72.839, -77.1351 -72.6987, -77.0601 -72.5585, -76.9851 -72.4185, -76.9101 -72.2787, -76.835 -72.1389, -76.7599 -71.9994, -76.6848 -71.8599, -76.6097 -71.7206, -76.5345 -71.5815, -76.4594 -71.4425, -76.3841 -71.3036, -76.3089 -71.1649, -76.2337 -71.0264, -76.1584 -70.8879, -76.0831 -70.7496, -76.0078 -70.6115, -75.9325 -70.4735, -75.8571 -70.3357, -75.7817 -70.198, -75.7064 -70.0604, -75.6309 -69.923, -75.5555 -69.7857, -75.4801 -69.6485, -75.4046 -69.5115, -75.3291 -69.3747, -75.2536 -69.238, -75.1781 -69.1014, -75.1026 -68.965, -75.0271 -68.8287, -74.9515 -68.6925, -74.8759 -68.5565, -74.8004 -68.4206, -74.7248 -68.2849, -74.6492 -68.1493, -74.5735 -68.0138, -74.4979 -67.8785, -74.4223 -67.7433, -74.3466 -67.6083, -74.2709 -67.4734, -74.1953 -67.3386, -74.1196 -67.204, -74.0439 -67.0695, -73.9682 -66.9352, -73.8925 -66.801, -73.8168 -66.6669, -73.741 -66.5329, -73.6653 -66.3991, -73.5896 -66.2655, -73.5138 -66.1319, -73.4381 -65.9986, -73.3623 -65.8653, -73.2865 -65.7322, -73.2108 -65.5992, -73.135 -65.4663, -73.0592 -65.3336, -72.9835 -65.201, -72.9077 -65.0686, -72.8319 -64.9363, -72.7561 -64.8041, -72.6803 -64.6721, -72.6045 -64.5401, -72.5287 -64.4084, -72.4529 -64.2767, -72.3772 -64.1452, -72.3014 -64.0138, -72.2256 -63.8826, -72.1498 -63.7515, -72.074 -63.6205, -71.9982 -63.4897, -71.9224 -63.359, -71.8467 -63.2284, -71.7709 -63.0979, -71.6951 -62.9676, -71.6193 -62.8374, -71.5436 -62.7074, -71.4678 -62.5775, -71.3921 -62.4477, -71.3163 -62.318, -71.2406 -62.1885, -71.1648 -62.0591, -71.0891 -61.9298, -71.0134 -61.8007, -70.9377 -61.6717, -70.862 -61.5428, -70.7863 -61.4141, -70.7106 -61.2855, -70.6349 -61.157, -70.5592 -61.0286, -70.4836 -60.9004, -70.4079 -60.7723, -70.3323 -60.6443, -70.2566 -60.5165, -70.181 -60.3888, -70.1054 -60.2612, -70.0298 -60.1338, -69.9542 -60.0064, -69.8787 -59.8792, -69.8031 -59.7522, -69.7276 -59.6252, -69.652 -59.4984, -69.5765 -59.3717, -69.501 -59.2452, -69.4255 -59.1187, -69.3501 -58.9924, -69.2746 -58.8663, -69.1992 -58.7402, -69.1237 -58.6143, -69.0483 -58.4885, -68.973 -58.3628, -68.8976 -58.2373, -68.8222 -58.1119, -68.7469 -57.9866, -68.6716 -57.8614, -68.5963 -57.7364, -68.521 -57.6114, -68.4458 -57.4867, -68.3705 -57.362, -68.2953 -57.2374, -68.2201 -57.113, -68.145 -56.9887, -68.0698 -56.8646, -67.9947 -56.7405, -67.9196 -56.6166, -67.8445 -56.4928, -67.7694 -56.3692, -67.6944 -56.2456, -67.6194 -56.1222, -67.5444 -55.9989, -67.4694 -55.8757, -67.3945 -55.7527, -67.3196 -55.6298, -67.2447 -55.507, -67.1698 -55.3843, -67.095 -55.2618, -67.0202 -55.1393, -66.9454 -55.017, -66.8706 -54.8948, -66.7959 -54.7728, -66.7212 -54.6508, -66.6465 -54.529, -66.5719 -54.4073, -66.4973 -54.2858, -66.4227 -54.1643, -66.3481 -54.043, -66.2736 -53.9218, -66.1991 -53.8007, -66.1246 -53.6797, -66.0502 -53.5589, -65.9758 -53.4382, -65.9014 -53.3176, -65.8271 -53.1971, -65.7528 -53.0768, -65.6785 -52.9566, -65.6043 -52.8364, -65.5301 -52.7165, -65.4559 -52.5966, -65.3818 -52.4768, -65.3076 -52.3572, -65.2336 -52.2377, -65.1595 -52.1183, -65.0855 -51.9991, -65.0116 -51.8799, -64.9376 -51.7609, -64.8637 -51.642, -64.7899 -51.5232, -64.7161 -51.4046, -64.6423 -51.286, -64.5685 -51.1676, -64.4948 -51.0493, -64.4212 -50.9311, -64.3475 -50.8131, -64.2739 -50.6951, -64.2004 -50.5773, -64.1269 -50.4596, -64.0534 -50.342, -63.98 -50.2246, -63.9066 -50.1072, -63.8332 -49.99, -63.7599 -49.8729, -63.6866 -49.7559, -63.6134 -49.639, -63.5402 -49.5223, -63.4671 -49.4057, -63.394 -49.2892, -63.3209 -49.1728, -63.2479 -49.0565, -63.1749 -48.9403, -63.102 -48.8243, -63.0291 -48.7084, -62.9563 -48.5926, -62.8835 -48.4769, -62.8107 -48.3614, -62.738 -48.2459, -62.6653 -48.1306, -62.5927 -48.0154, -62.5202 -47.9003, -62.4476 -47.7853, -62.3752 -47.6705, -62.3027 -47.5558, -62.2303 -47.4411, -62.158 -47.3266, -62.0857 -47.2123, -62.0135 -47.098, -61.9413 -46.9839, -61.8691 -46.8698, -61.797 -46.7559, -61.725 -46.6421, -61.653 -46.5285, -61.5811 -46.4149, -61.5092 -46.3015, -61.4373 -46.1882, -61.3655 -46.0749, -61.2938 -45.9619, -61.222 -45.8489, -61.1502 -45.7362, -61.0783 -45.6236, -61.0063 -45.5112, -60.9343 -45.399, -60.8623 -45.2869, -60.7901 -45.175, -60.7179 -45.0633, -60.6457 -44.9517, -60.5734 -44.8404, -60.501 -44.7292, -60.4286 -44.6181, -60.3561 -44.5073, -60.2836 -44.3966, -60.211 -44.286, -60.1383 -44.1757, -60.0656 -44.0655, -59.9929 -43.9555, -59.9201 -43.8456, -59.8472 -43.736, -59.7743 -43.6264, -59.7013 -43.5171, -59.6283 -43.4079, -59.5552 -43.2989, -59.4821 -43.19, -59.4089 -43.0814, -59.3357 -42.9728, -59.2624 -42.8645, -59.1891 -42.7563, -59.1157 -42.6483, -59.0423 -42.5404, -58.9688 -42.4327, -58.8953 -42.3252, -58.8218 -42.2178, -58.7481 -42.1106, -58.6745 -42.0035, -58.6008 -41.8966, -58.527 -41.7899, -58.4532 -41.6833, -58.3794 -41.5769, -58.3055 -41.4706, -58.2316 -41.3645, -58.1576 -41.2586, -58.0836 -41.1528, -58.0095 -41.0472, -57.9354 -40.9417, -57.8613 -40.8364, -57.7871 -40.7313, -57.7129 -40.6263, -57.6386 -40.5215, -57.5643 -40.4168, -57.49 -40.3123, -57.4156 -40.2079, -57.3412 -40.1037, -57.2668 -39.9996, -57.1923 -39.8957, -57.1177 -39.792, -57.0432 -39.6884, -56.9686 -39.5849, -56.8939 -39.4817, -56.8193 -39.3785, -56.7446 -39.2755, -56.6698 -39.1727, -56.595 -39.07, -56.5202 -38.9675, -56.4454 -38.8651, -56.3705 -38.7629, -56.2956 -38.6608, -56.2207 -38.5588, -56.1457 -38.4571, -56.0707 -38.3554, -55.9957 -38.254, -55.9207 -38.1526, -55.8456 -38.0514, -55.7705 -37.9504, -55.6953 -37.8495, -55.6202 -37.7487, -55.545 -37.6482, -55.4697 -37.5477, -55.3945 -37.4474, -55.3192 -37.3472, -55.2439 -37.2472, -55.1686 -37.1473, -55.0933 -37.0476, -55.0179 -36.948, -54.9425 -36.8486, -54.8671 -36.7493, -54.7916 -36.6502, -54.7162 -36.5512, -54.6407 -36.4523, -54.5652 -36.3536, -54.4897 -36.255, -54.4141 -36.1566, -54.3385 -36.0583, -54.263 -35.9601, -54.1874 -35.8621, -54.1117 -35.7642, -54.0361 -35.6665, -53.9604 -35.5689, -53.8848 -35.4714, -53.8091 -35.3741, -53.7334 -35.277, -53.6577 -35.1799, -53.5819 -35.083, -53.5062 -34.9863, -53.4304 -34.8897, -53.3546 -34.7932, -53.2788 -34.6968, -53.203 -34.6006, -53.1272 -34.5046, -53.0514 -34.4086, -52.9756 -34.3128, -52.8997 -34.2172, -52.8238 -34.1217, -52.748 -34.0263, -52.6721 -33.931, -52.5962 -33.8359, -52.5203 -33.7409, -52.4444 -33.6461, -52.3685 -33.5513, -52.2926 -33.4568, -52.2166 -33.3623, -52.1407 -33.268, -52.0648 -33.1738, -51.9888 -33.0798, -51.9129 -32.9859, -51.8369 -32.8921, -51.761 -32.7984, -51.685 -32.7049, -51.6091 -32.6115, -51.5331 -32.5183, -51.4571 -32.4252, -51.3811 -32.3322, -51.3052 -32.2393, -51.2292 -32.1466, -51.1532 -32.054, -51.0773 -31.9615, -51.0013 -31.8692, -50.9253 -31.7769, -50.8494 -31.6849, -50.7734 -31.5929, -50.6974 -31.5011, -50.6215 -31.4094, -50.5455 -31.3178, -50.4696 -31.2264, -50.3936 -31.1351, -50.3177 -31.0439, -50.2418 -30.9528, -50.1658 -30.8619, -50.0899 -30.7711, -50.014 -30.6804, -49.9381 -30.5898, -49.8622 -30.4994, -49.7863 -30.4091, -49.7104 -30.3189, -49.6345 -30.2289, -49.5586 -30.139, -49.4828 -30.0492, -49.4069 -29.9595, -49.3311 -29.87, -49.2553 -29.7805, -49.1795 -29.6912, -49.1037 -29.6021, -49.0279 -29.513, -48.9521 -29.4241, -48.8764 -29.3353, -48.8006 -29.2466, -48.7249 -29.1581, -48.6492 -29.0696, -48.5735 -28.9813, -48.4978 -28.8931, -48.4221 -28.8051, -48.3465 -28.7171, -48.2708 -28.6293, -48.1952 -28.5416, -48.1196 -28.454, -48.0441 -28.3666, -47.9685 -28.2792, -47.893 -28.192, -47.8174 -28.1049, -47.742 -28.0179, -47.6665 -27.9311, -47.591 -27.8444, -47.5156 -27.7578, -47.4402 -27.6713, -47.3648 -27.5849, -47.2894 -27.4986, -47.2141 -27.4125, -47.1388 -27.3265, -47.0635 -27.2406, -46.9882 -27.1548, -46.913 -27.0692, -46.8378 -26.9836, -46.7626 -26.8982, -46.6874 -26.8129, -46.6123 -26.7278, -46.5372 -26.6427, -46.4621 -26.5578, -46.3871 -26.4729, -46.3121 -26.3882, -46.2371 -26.3036, -46.1621 -26.2192, -46.0872 -26.1348, -46.0123 -26.0506, -45.9374 -25.9665, -45.8626 -25.8825, -45.7878 -25.7986, -45.7131 -25.7148, -45.6383 -25.6312, -45.5636 -25.5476, -45.489 -25.4642, -45.4143 -25.3809, -45.3397 -25.2977, -45.2652 -25.2147, -45.1907 -25.1317, -45.1162 -25.0489, -45.0417 -24.9661, -44.9673 -24.8835, -44.893 -24.8011, -44.8186 -24.7187, -44.7443 -24.6364, -44.6701 -24.5543, -44.5959 -24.4723, -44.5217 -24.3903, -44.4476 -24.3085, -44.3735 -24.2269, -44.2994 -24.1453, -44.2254 -24.0639, -44.1515 -23.9825, -44.0775 -23.9013, -44.0037 -23.8202, -43.9298 -23.7392, -43.856 -23.6583, -43.7823 -23.5775, -43.7086 -23.4969, -43.6349 -23.4164, -43.5613 -23.3359, -43.4878 -23.2556, -43.4143 -23.1754, -43.3408 -23.0954, -43.2674 -23.0154, -43.194 -22.9355, -43.1207 -22.8558, -43.0474 -22.7762, -42.9742 -22.6967, -42.901 -22.6173, -42.8279 -22.538, -42.7548 -22.4588, -42.6818 -22.3798, -42.6089 -22.3008, -42.5359 -22.222, -42.4631 -22.1433, -42.3903 -22.0647, -42.3175 -21.9862, -42.2448 -21.9078, -42.1722 -21.8295, -42.0996 -21.7514, -42.0271 -21.6734, -41.9546 -21.5954, -41.8822 -21.5176, -41.8098 -21.4399, -41.7375 -21.3623, -41.6652 -21.2849, -41.5931 -21.2075, -41.5209 -21.1303, -41.4489 -21.0531, -41.3768 -20.9761, -41.3049 -20.8992, -41.233 -20.8224, -41.1612 -20.7457, -41.0894 -20.6691, -41.0177 -20.5927, -40.946 -20.5163, -40.8745 -20.4401, -40.8029 -20.364, -40.7313 -20.2881, -40.6597 -20.2123, -40.5881 -20.1367, -40.5165 -20.0613, -40.4449 -19.9861, -40.3732 -19.911, -40.3016 -19.836, -40.2299 -19.7613, -40.1582 -19.6867, -40.0865 -19.6123, -40.0147 -19.538, -39.943 -19.4639, -39.8712 -19.39, -39.7994 -19.3162, -39.7276 -19.2427, -39.6557 -19.1692, -39.5839 -19.096, -39.512 -19.0229, -39.4401 -18.9499, -39.3682 -18.8772, -39.2963 -18.8046, -39.2243 -18.7321, -39.1523 -18.6599, -39.0803 -18.5878, -39.0083 -18.5158, -38.9363 -18.4441, -38.8642 -18.3724, -38.7921 -18.301, -38.72 -18.2297, -38.6479 -18.1586, -38.5757 -18.0876, -38.5035 -18.0168, -38.4313 -17.9462, -38.3591 -17.8757, -38.2869 -17.8054, -38.2146 -17.7353, -38.1423 -17.6653, -38.07 -17.5955, -37.9976 -17.5258, -37.9252 -17.4563, -37.8528 -17.387, -37.7804 -17.3178, -37.708 -17.2488, -37.6355 -17.1799, -37.563 -17.1112, -37.4905 -17.0427, -37.4179 -16.9743, -37.3453 -16.9061, -37.2727 -16.8381, -37.2001 -16.7702, -37.1274 -16.7025, -37.0548 -16.6349, -36.982 -16.5675, -36.9093 -16.5002, -36.8365 -16.4331, -36.7637 -16.3662, -36.6909 -16.2994, -36.6181 -16.2327, -36.5452 -16.1663, -36.4723 -16.1, -36.3993 -16.0338, -36.3264 -15.9678, -36.2534 -15.902, -36.1803 -15.8363, -36.1073 -15.7707, -36.0342 -15.7054, -35.9611 -15.6402, -35.888 -15.5751, -35.8148 -15.5102, -35.7416 -15.4454, -35.6684 -15.3808, -35.5951 -15.3164, -35.5218 -15.2521, -35.4485 -15.1879, -35.3751 -15.124, -35.3018 -15.0601, -35.2283 -14.9964, -35.1549 -14.9329, -35.0814 -14.8695, -35.0079 -14.8063, -34.9344 -14.7432, -34.8608 -14.6803, -34.7872 -14.6175, -34.7136 -14.5549, -34.64 -14.4925, -34.5663 -14.4301, -34.4926 -14.368, -34.4188 -14.3059, -34.345 -14.2441, -34.2712 -14.1824, -34.1974 -14.1208, -34.1235 -14.0594, -34.0496 -13.9981, -33.9757 -13.937, -33.9017 -13.876, -33.8277 -13.8151, -33.7537 -13.7545, -33.6796 -13.6939, -33.6055 -13.6335, -33.5314 -13.5733, -33.4573 -13.5132, -33.3831 -13.4532, -33.3089 -13.3934, -33.2346 -13.3338, -33.1604 -13.2743, -33.086 -13.2149, -33.0117 -13.1557, -32.9373 -13.0966, -32.8629 -13.0376, -32.7885 -12.9788, -32.7141 -12.9202, -32.6396 -12.8617, -32.565 -12.8033, -32.4905 -12.7451, -32.4159 -12.687, -32.3413 -12.6291, -32.2667 -12.5713, -32.192 -12.5136, -32.1173 -12.4561, -32.0426 -12.3987, -31.9678 -12.3415, -31.893 -12.2844, -31.8182 -12.2274, -31.7433 -12.1706, -31.6685 -12.1139, -31.5935 -12.0574, -31.5186 -12.001, -31.4436 -11.9447, -31.3686 -11.8886, -31.2936 -11.8326, -31.2186 -11.7768, -31.1435 -11.7211, -31.0684 -11.6655, -30.9933 -11.6101, -30.9181 -11.5548, -30.8429 -11.4996, -30.7677 -11.4446, -30.6924 -11.3897, -30.6172 -11.3349, -30.5419 -11.2803, -30.4666 -11.2258, -30.3912 -11.1715, -30.3158 -11.1173, -30.2404 -11.0632, -30.165 -11.0092, -30.0895 -10.9554, -30.0141 -10.9017, -29.9386 -10.8482, -29.863 -10.7947, -29.7875 -10.7415, -29.7119 -10.6883, -29.6363 -10.6353, -29.5607 -10.5824, -29.4851 -10.5296, -29.4094 -10.477, -29.3337 -10.4245, -29.258 -10.3721, -29.1823 -10.3199, -29.1065 -10.2678, -29.0307 -10.2158, -28.9549 -10.1639, -28.8791 -10.1122, -28.8033 -10.0606, -28.7274 -10.0092, -28.6516 -9.95782, -28.5757 -9.90661, -28.4998 -9.85553, -28.4238 -9.80458, -28.3479 -9.75375, -28.2719 -9.70305, -28.1959 -9.65248, -28.1199 -9.60203, -28.0439 -9.55171, -27.9679 -9.50152, -27.8918 -9.45145, -27.8158 -9.4015, -27.7397 -9.35168, -27.6636 -9.30199, -27.5875 -9.25242, -27.5114 -9.20298, -27.4352 -9.15366, -27.3591 -9.10446, -27.2829 -9.05538, -27.2068 -9.00644, -27.1306 -8.95761, -27.0544 -8.90891, -26.9782 -8.86032, -26.902 -8.81187, -26.8258 -8.76353, -26.7495 -8.71531, -26.6733 -8.66722, -26.5971 -8.61925, -26.5208 -8.5714, -26.4446 -8.52367, -26.3683 -8.47607, -26.292 -8.42858, -26.2158 -8.38121, -26.1395 -8.33397, -26.0632 -8.28684, -25.9869 -8.23983, -25.9106 -8.19295, -25.8344 -8.14618, -25.7581 -8.09953, -25.6818 -8.053, -25.6055 -8.00659, -25.5292 -7.9603, -25.4529 -7.91412, -25.3766 -7.86807, -25.3003 -7.82213, -25.224 -7.77631, -25.1478 -7.73061, -25.0715 -7.68502, -24.9952 -7.63955, -24.919 -7.5942, -24.8427 -7.54897, -24.7665 -7.50385, -24.6902 -7.45885, -24.614 -7.41396, -24.5377 -7.36919, -24.4615 -7.32454, -24.3853 -7.28, -24.3091 -7.23558, -24.2329 -7.19127, -24.1568 -7.14708, -24.0806 -7.103, -24.0045 -7.05904, -23.9283 -7.01519, -23.8522 -6.97146, -23.7761 -6.92784, -23.7 -6.88434, -23.624 -6.84095, -23.5479 -6.79767, -23.4719 -6.75451, -23.3959 -6.71146, -23.3199 -6.66852, -23.2439 -6.6257, -23.168 -6.58299, -23.0921 -6.54039, -23.0162 -6.49791, -22.9403 -6.45554, -22.8644 -6.41328, -22.7886 -6.37113, -22.7128 -6.3291, -22.6371 -6.28718, -22.5613 -6.24537, -22.4856 -6.20367, -22.4099 -6.16208, -22.3343 -6.12061, -22.2587 -6.07924, -22.1831 -6.03799, -22.1075 -5.99685, -22.032 -5.95582, -21.9566 -5.9149, -21.8811 -5.8741, -21.8057 -5.8334, -21.7304 -5.79281, -21.655 -5.75234, -21.5797 -5.71197, -21.5045 -5.67172, -21.4293 -5.63158, -21.3541 -5.59154, -21.279 -5.55162, -21.204 -5.51181, -21.1289 -5.4721, -21.054 -5.43251, -20.979 -5.39303, -20.9042 -5.35365, -20.8293 -5.31439, -20.7545 -5.27523, -20.6798 -5.23619, -20.6052 -5.19725, -20.5305 -5.15843, -20.456 -5.11971, -20.3814 -5.08111, -20.3069 -5.04267, -20.2324 -5.00439, -20.1579 -4.96626, -20.0834 -4.92828, -20.0088 -4.89046, -19.9343 -4.8528, -19.8598 -4.81529, -19.7853 -4.77793, -19.7108 -4.74073, -19.6362 -4.70369, -19.5617 -4.6668, -19.4872 -4.63006, -19.4127 -4.59348, -19.3382 -4.55706, -19.2636 -4.52079, -19.1891 -4.48467, -19.1146 -4.4487, -19.0401 -4.41289, -18.9655 -4.37724, -18.891 -4.34174, -18.8165 -4.30639, -18.742 -4.27119, -18.6675 -4.23615, -18.5929 -4.20126, -18.5184 -4.16652, -18.4439 -4.13194, -18.3694 -4.09751, -18.2949 -4.06324, -18.2203 -4.02911, -18.1458 -3.99514, -18.0713 -3.96132, -17.9968 -3.92766, -17.9223 -3.89414, -17.8477 -3.86078, -17.7732 -3.82757, -17.6987 -3.79451, -17.6242 -3.76161, -17.5497 -3.72885, -17.4751 -3.69625, -17.4006 -3.6638, -17.3261 -3.6315, -17.2516 -3.59935, -17.177 -3.56735, -17.1025 -3.53551, -17.028 -3.50381, -16.9535 -3.47227, -16.879 -3.44088, -16.8044 -3.40963, -16.7299 -3.37854, -16.6554 -3.3476, -16.5809 -3.31681, -16.5064 -3.28617, -16.4318 -3.25568, -16.3573 -3.22533, -16.2828 -3.19514, -16.2083 -3.1651, -16.1338 -3.13521, -16.0592 -3.10547, -15.9847 -3.07587, -15.9102 -3.04643, -15.8357 -3.01714, -15.7612 -2.98799, -15.6866 -2.959, -15.6121 -2.93015, -15.5376 -2.90145, -15.4631 -2.8729, -15.3885 -2.8445, -15.314 -2.81625, -15.2395 -2.78814, -15.165 -2.76019, -15.0905 -2.73238, -15.0159 -2.70472, -14.9414 -2.67721, -14.8669 -2.64984, -14.7924 -2.62263, -14.7179 -2.59556, -14.6433 -2.56864, -14.5688 -2.54186, -14.4943 -2.51524, -14.4198 -2.48876, -14.3453 -2.46242, -14.2707 -2.43624, -14.1962 -2.4102, -14.1217 -2.38431, -14.0472 -2.35856, -13.9727 -2.33296, -13.8981 -2.30751, -13.8236 -2.2822, -13.7491 -2.25704, -13.6746 -2.23203, -13.6 -2.20716, -13.5255 -2.18244, -13.451 -2.15786, -13.3765 -2.13343, -13.302 -2.10915, -13.2274 -2.08501, -13.1529 -2.06101, -13.0784 -2.03716, -13.0039 -2.01346, -12.9294 -1.9899, -12.8548 -1.96648, -12.7803 -1.94321, -12.7058 -1.92009, -12.6313 -1.89711, -12.5568 -1.87427, -12.4822 -1.85158, -12.4077 -1.82903, -12.3332 -1.80663, -12.2587 -1.78437, -12.1842 -1.76225, -12.1096 -1.74028, -12.0351 -1.71845, -11.9606 -1.69677, -11.8861 -1.67523, -11.8115 -1.65383, -11.737 -1.63257, -11.6625 -1.61146, -11.588 -1.59049, -11.5135 -1.56967, -11.4389 -1.54899, -11.3644 -1.52845, -11.2899 -1.50805, -11.2154 -1.48779, -11.1409 -1.46768, -11.0663 -1.44771, -10.9918 -1.42788, -10.9173 -1.40819, -10.8428 -1.38865, -10.7683 -1.36925, -10.6937 -1.34998, -10.6192 -1.33086, -10.5447 -1.31189, -10.4702 -1.29305, -10.3957 -1.27435, -10.3211 -1.2558, -10.2466 -1.23739, -10.1721 -1.21911, -10.0976 -1.20098, -10.023 -1.18299, -9.94853 -1.16514, -9.87401 -1.14743, -9.79949 -1.12986, -9.72497 -1.11243, -9.65044 -1.09514, -9.57592 -1.07799, -9.5014 -1.06098, -9.42688 -1.04412, -9.35236 -1.02739, -9.27784 -1.0108, -9.20332 -0.994345, -9.1288 -0.978034, -9.05428 -0.961862, -8.97976 -0.94583, -8.90524 -0.929936, -8.83072 -0.914182, -8.7562 -0.898566, -8.68167 -0.883089, -8.60715 -0.86775, -8.53263 -0.852551, -8.45811 -0.837489, -8.38359 -0.822566, -8.30907 -0.807781, -8.23455 -0.793134, -8.16003 -0.778625, -8.08551 -0.764254, -8.01099 -0.750021, -7.93647 -0.735925, -7.86195 -0.721967, -7.78743 -0.708146, -7.7129 -0.694463, -7.63838 -0.680916, -7.56386 -0.667507, -7.48934 -0.654235, -7.41482 -0.6411, -7.3403 -0.628101, -7.26578 -0.615239, -7.19126 -0.602514, -7.11674 -0.589925, -7.04222 -0.577473, -6.9677 -0.565156, -6.89318 -0.552976, -6.81865 -0.540932, -6.74413 -0.529024, -6.66961 -0.517251, -6.59509 -0.505614, -6.52057 -0.494113, -6.44605 -0.482747, -6.37153 -0.471517, -6.29701 -0.460421, -6.22249 -0.449461, -6.14797 -0.438636, -6.07345 -0.427946, -5.99893 -0.41739, -5.9244 -0.40697, -5.84988 -0.396684, -5.77536 -0.386532, -5.70084 -0.376515, -5.62632 -0.366631, -5.5518 -0.356883, -5.47728 -0.347268, -5.40276 -0.337787, -5.32824 -0.328439, -5.25372 -0.319226, -5.1792 -0.310146, -5.10468 -0.3012, -5.03015 -0.292387, -4.95563 -0.283707, -4.88111 -0.27516, -4.80659 -0.266747, -4.73207 -0.258466, -4.65755 -0.250319, -4.58303 -0.242303, -4.50851 -0.234421, -4.43399 -0.226671, -4.35947 -0.219054, -4.28495 -0.211568, -4.21043 -0.204215, -4.13591 -0.196994, -4.06138 -0.189905, -3.98686 -0.182948, -3.91234 -0.176122, -3.83782 -0.169429, -3.7633 -0.162866, -3.68878 -0.156435, -3.61426 -0.150136, -3.53974 -0.143967, -3.46522 -0.13793, -3.3907 -0.132023, -3.31618 -0.126248, -3.24166 -0.120603, -3.16713 -0.115089, -3.09261 -0.109705, -3.01809 -0.104452, -2.94357 -0.0993292, -2.86905 -0.0943365, -2.79453 -0.0894739, -2.72001 -0.0847413, -2.64549 -0.0801386, -2.57097 -0.0756656, -2.49645 -0.0713223, -2.42193 -0.0671086, -2.34741 -0.0630243, -2.27288 -0.0590693, -2.19836 -0.0552435, -2.12384 -0.0515469, -2.04932 -0.0479792, -1.9748 -0.0445405, -1.90028 -0.0412305, -1.82576 -0.0380492, -1.75124 -0.0349965, -1.67672 -0.0320722, -1.6022 -0.0292763, -1.52768 -0.0266086, -1.45316 -0.024069, -1.37864 -0.0216574, -1.30411 -0.0193738, -1.22959 -0.0172179, -1.15507 -0.0151898, -1.08055 -0.0132892, -1.00603 -0.0115161, -0.93151 -0.00987035, -0.856989 -0.00835185, -0.782469 -0.0069605, -0.707948 -0.00569618, -0.633427 -0.00455878, -0.558906 -0.0035482, -0.484385 -0.00266432, -0.409864 -0.00190704, -0.335344 -0.00127624, -0.260823 -0.000771826, -0.186302 -0.000393675, -0.111781 -0.000141682, -0.0372604 -1.57379e-005, 0.0372604 -1.57379e-005, 0.111781 -0.000141682, 0.186302 -0.000393675, 0.260823 -0.000771826, 0.335344 -0.00127624, 0.409864 -0.00190704, 0.484385 -0.00266432, 0.558906 -0.0035482, 0.633427 -0.00455878, 0.707948 -0.00569618, 0.782469 -0.0069605, 0.856989 -0.00835185, 0.93151 -0.00987035, 1.00603 -0.0115161, 1.08055 -0.0132892, 1.15507 -0.0151898, 1.22959 -0.0172179, 1.30411 -0.0193738, 1.37864 -0.0216574, 1.45316 -0.024069, 1.52768 -0.0266086, 1.6022 -0.0292763, 1.67672 -0.0320722, 1.75124 -0.0349965, 1.82576 -0.0380492, 1.90028 -0.0412305, 1.9748 -0.0445405, 2.04932 -0.0479792, 2.12384 -0.0515469, 2.19836 -0.0552435, 2.27288 -0.0590693, 2.34741 -0.0630243, 2.42193 -0.0671086, 2.49645 -0.0713223, 2.57097 -0.0756656, 2.64549 -0.0801386, 2.72001 -0.0847413, 2.79453 -0.0894739, 2.86905 -0.0943365, 2.94357 -0.0993292, 3.01809 -0.104452, 3.09261 -0.109705, 3.16713 -0.115089, 3.24166 -0.120603, 3.31618 -0.126248, 3.3907 -0.132023, 3.46522 -0.13793, 3.53974 -0.143967, 3.61426 -0.150136, 3.68878 -0.156435, 3.7633 -0.162866, 3.83782 -0.169429, 3.91234 -0.176122, 3.98686 -0.182948, 4.06138 -0.189905, 4.13591 -0.196994, 4.21043 -0.204215, 4.28495 -0.211568, 4.35947 -0.219054, 4.43399 -0.226671, 4.50851 -0.234421, 4.58303 -0.242303, 4.65755 -0.250319, 4.73207 -0.258466, 4.80659 -0.266747, 4.88111 -0.27516, 4.95563 -0.283707, 5.03015 -0.292387, 5.10468 -0.3012, 5.1792 -0.310146, 5.25372 -0.319226, 5.32824 -0.328439, 5.40276 -0.337787, 5.47728 -0.347268, 5.5518 -0.356883, 5.62632 -0.366631, 5.70084 -0.376515, 5.77536 -0.386532, 5.84988 -0.396684, 5.9244 -0.40697, 5.99893 -0.41739, 6.07345 -0.427946, 6.14797 -0.438636, 6.22249 -0.449461, 6.29701 -0.460421, 6.37153 -0.471517, 6.44605 -0.482747, 6.52057 -0.494113, 6.59509 -0.505614, 6.66961 -0.517251, 6.74413 -0.529024, 6.81865 -0.540932, 6.89318 -0.552976, 6.9677 -0.565156, 7.04222 -0.577473, 7.11674 -0.589925, 7.19126 -0.602514, 7.26578 -0.615239, 7.3403 -0.628101, 7.41482 -0.6411, 7.48934 -0.654235, 7.56386 -0.667507, 7.63838 -0.680916, 7.7129 -0.694463, 7.78743 -0.708146, 7.86195 -0.721967, 7.93647 -0.735925, 8.01099 -0.750021, 8.08551 -0.764254, 8.16003 -0.778625, 8.23455 -0.793134, 8.30907 -0.807781, 8.38359 -0.822566, 8.45811 -0.837489, 8.53263 -0.852551, 8.60715 -0.86775, 8.68167 -0.883089, 8.7562 -0.898566, 8.83072 -0.914182, 8.90524 -0.929936, 8.97976 -0.94583, 9.05428 -0.961862, 9.1288 -0.978034, 9.20332 -0.994345, 9.27784 -1.0108, 9.35236 -1.02739, 9.42688 -1.04412, 9.5014 -1.06098, 9.57592 -1.07799, 9.65044 -1.09514, 9.72497 -1.11243, 9.79949 -1.12986, 9.87401 -1.14743, 9.94853 -1.16514, 10.023 -1.18299, 10.0976 -1.20098, 10.1721 -1.21911, 10.2466 -1.23739, 10.3211 -1.2558, 10.3957 -1.27435, 10.4702 -1.29305, 10.5447 -1.31189, 10.6192 -1.33086, 10.6937 -1.34998, 10.7683 -1.36925, 10.8428 -1.38865, 10.9173 -1.40819, 10.9918 -1.42788, 11.0663 -1.44771, 11.1409 -1.46768, 11.2154 -1.48779, 11.2899 -1.50805, 11.3644 -1.52845, 11.4389 -1.54899, 11.5135 -1.56967, 11.588 -1.59049, 11.6625 -1.61146, 11.737 -1.63257, 11.8115 -1.65383, 11.8861 -1.67523, 11.9606 -1.69677, 12.0351 -1.71845, 12.1096 -1.74028, 12.1842 -1.76225, 12.2587 -1.78437, 12.3332 -1.80663, 12.4077 -1.82903, 12.4822 -1.85158, 12.5568 -1.87427, 12.6313 -1.89711, 12.7058 -1.92009, 12.7803 -1.94321, 12.8548 -1.96648, 12.9294 -1.9899, 13.0039 -2.01346, 13.0784 -2.03716, 13.1529 -2.06101, 13.2274 -2.08501, 13.302 -2.10915, 13.3765 -2.13343, 13.451 -2.15786, 13.5255 -2.18244, 13.6 -2.20716, 13.6746 -2.23203, 13.7491 -2.25704, 13.8236 -2.2822, 13.8981 -2.30751, 13.9727 -2.33296, 14.0472 -2.35856, 14.1217 -2.38431, 14.1962 -2.4102, 14.2707 -2.43624, 14.3453 -2.46242, 14.4198 -2.48876, 14.4943 -2.51524, 14.5688 -2.54186, 14.6433 -2.56864, 14.7179 -2.59556, 14.7924 -2.62263, 14.8669 -2.64984, 14.9414 -2.67721, 15.0159 -2.70472, 15.0905 -2.73238, 15.165 -2.76019, 15.2395 -2.78814, 15.314 -2.81625, 15.3885 -2.8445, 15.4631 -2.8729, 15.5376 -2.90145, 15.6121 -2.93015, 15.6866 -2.959, 15.7612 -2.98799, 15.8357 -3.01714, 15.9102 -3.04643, 15.9847 -3.07587, 16.0592 -3.10547, 16.1338 -3.13521, 16.2083 -3.1651, 16.2828 -3.19514, 16.3573 -3.22533, 16.4318 -3.25568, 16.5064 -3.28617, 16.5809 -3.31681, 16.6554 -3.3476, 16.7299 -3.37854, 16.8044 -3.40963, 16.879 -3.44088, 16.9535 -3.47227, 17.028 -3.50381, 17.1025 -3.53551, 17.177 -3.56735, 17.2516 -3.59935, 17.3261 -3.6315, 17.4006 -3.6638, 17.4751 -3.69625, 17.5497 -3.72885, 17.6242 -3.76161, 17.6987 -3.79451, 17.7732 -3.82757, 17.8477 -3.86078, 17.9223 -3.89414, 17.9968 -3.92766, 18.0713 -3.96132, 18.1458 -3.99514, 18.2203 -4.02911, 18.2949 -4.06324, 18.3694 -4.09751, 18.4439 -4.13194, 18.5184 -4.16652, 18.5929 -4.20126, 18.6675 -4.23615, 18.742 -4.27119, 18.8165 -4.30639, 18.891 -4.34174, 18.9655 -4.37724, 19.0401 -4.41289, 19.1146 -4.4487, 19.1891 -4.48467, 19.2636 -4.52079, 19.3382 -4.55706, 19.4127 -4.59348, 19.4872 -4.63006, 19.5617 -4.6668, 19.6362 -4.70369, 19.7108 -4.74073, 19.7853 -4.77793, 19.8598 -4.81529, 19.9343 -4.8528, 20.0088 -4.89046, 20.0834 -4.92828, 20.1579 -4.96626, 20.2324 -5.00439, 20.3069 -5.04267, 20.3814 -5.08111, 20.456 -5.11971, 20.5305 -5.15843, 20.6052 -5.19725, 20.6798 -5.23619, 20.7545 -5.27523, 20.8293 -5.31439, 20.9042 -5.35365, 20.979 -5.39303, 21.054 -5.43251, 21.1289 -5.4721, 21.204 -5.51181, 21.279 -5.55162, 21.3541 -5.59154, 21.4293 -5.63158, 21.5045 -5.67172, 21.5797 -5.71197, 21.655 -5.75234, 21.7304 -5.79281, 21.8057 -5.8334, 21.8811 -5.8741, 21.9566 -5.9149, 22.032 -5.95582, 22.1075 -5.99685, 22.1831 -6.03799, 22.2587 -6.07924, 22.3343 -6.12061, 22.4099 -6.16208, 22.4856 -6.20367, 22.5613 -6.24537, 22.6371 -6.28718, 22.7128 -6.3291, 22.7886 -6.37113, 22.8644 -6.41328, 22.9403 -6.45554, 23.0162 -6.49791, 23.0921 -6.54039, 23.168 -6.58299, 23.2439 -6.6257, 23.3199 -6.66852, 23.3959 -6.71146, 23.4719 -6.75451, 23.5479 -6.79767, 23.624 -6.84095, 23.7 -6.88434, 23.7761 -6.92784, 23.8522 -6.97146, 23.9283 -7.01519, 24.0045 -7.05904, 24.0806 -7.103, 24.1568 -7.14708, 24.2329 -7.19127, 24.3091 -7.23558, 24.3853 -7.28, 24.4615 -7.32454, 24.5377 -7.36919, 24.614 -7.41396, 24.6902 -7.45885, 24.7665 -7.50385, 24.8427 -7.54897, 24.919 -7.5942, 24.9952 -7.63955, 25.0715 -7.68502, 25.1478 -7.73061, 25.224 -7.77631, 25.3003 -7.82213, 25.3766 -7.86807, 25.4529 -7.91412, 25.5292 -7.9603, 25.6055 -8.00659, 25.6818 -8.053, 25.7581 -8.09953, 25.8344 -8.14618, 25.9106 -8.19295, 25.9869 -8.23983, 26.0632 -8.28684, 26.1395 -8.33397, 26.2158 -8.38121, 26.292 -8.42858, 26.3683 -8.47607, 26.4446 -8.52367, 26.5208 -8.5714, 26.5971 -8.61925, 26.6733 -8.66722, 26.7495 -8.71531, 26.8258 -8.76353, 26.902 -8.81187, 26.9782 -8.86032, 27.0544 -8.90891, 27.1306 -8.95761, 27.2068 -9.00644, 27.2829 -9.05538, 27.3591 -9.10446, 27.4352 -9.15366, 27.5114 -9.20298, 27.5875 -9.25242, 27.6636 -9.30199, 27.7397 -9.35168, 27.8158 -9.4015, 27.8918 -9.45145, 27.9679 -9.50152, 28.0439 -9.55171, 28.1199 -9.60203, 28.1959 -9.65248, 28.2719 -9.70305, 28.3479 -9.75375, 28.4238 -9.80458, 28.4998 -9.85553, 28.5757 -9.90661, 28.6516 -9.95782, 28.7274 -10.0092, 28.8033 -10.0606, 28.8791 -10.1122, 28.9549 -10.1639, 29.0307 -10.2158, 29.1065 -10.2678, 29.1823 -10.3199, 29.258 -10.3721, 29.3337 -10.4245, 29.4094 -10.477, 29.4851 -10.5296, 29.5607 -10.5824, 29.6363 -10.6353, 29.7119 -10.6883, 29.7875 -10.7415, 29.863 -10.7947, 29.9386 -10.8482, 30.0141 -10.9017, 30.0895 -10.9554, 30.165 -11.0092, 30.2404 -11.0632, 30.3158 -11.1173, 30.3912 -11.1715, 30.4666 -11.2258, 30.5419 -11.2803, 30.6172 -11.3349, 30.6924 -11.3897, 30.7677 -11.4446, 30.8429 -11.4996, 30.9181 -11.5548, 30.9933 -11.6101, 31.0684 -11.6655, 31.1435 -11.7211, 31.2186 -11.7768, 31.2936 -11.8326, 31.3686 -11.8886, 31.4436 -11.9447, 31.5186 -12.001, 31.5935 -12.0574, 31.6685 -12.1139, 31.7433 -12.1706, 31.8182 -12.2274, 31.893 -12.2844, 31.9678 -12.3415, 32.0426 -12.3987, 32.1173 -12.4561, 32.192 -12.5136, 32.2667 -12.5713, 32.3413 -12.6291, 32.4159 -12.687, 32.4905 -12.7451, 32.565 -12.8033, 32.6396 -12.8617, 32.7141 -12.9202, 32.7885 -12.9788, 32.8629 -13.0376, 32.9373 -13.0966, 33.0117 -13.1557, 33.086 -13.2149, 33.1604 -13.2743, 33.2346 -13.3338, 33.3089 -13.3934, 33.3831 -13.4532, 33.4573 -13.5132, 33.5314 -13.5733, 33.6055 -13.6335, 33.6796 -13.6939, 33.7537 -13.7545, 33.8277 -13.8151, 33.9017 -13.876, 33.9757 -13.937, 34.0496 -13.9981, 34.1235 -14.0594, 34.1974 -14.1208, 34.2712 -14.1824, 34.345 -14.2441, 34.4188 -14.3059, 34.4926 -14.368, 34.5663 -14.4301, 34.64 -14.4925, 34.7136 -14.5549, 34.7872 -14.6175, 34.8608 -14.6803, 34.9344 -14.7432, 35.0079 -14.8063, 35.0814 -14.8695, 35.1549 -14.9329, 35.2283 -14.9964, 35.3018 -15.0601, 35.3751 -15.124, 35.4485 -15.1879, 35.5218 -15.2521, 35.5951 -15.3164, 35.6684 -15.3808, 35.7416 -15.4454, 35.8148 -15.5102, 35.888 -15.5751, 35.9611 -15.6402, 36.0342 -15.7054, 36.1073 -15.7707, 36.1803 -15.8363, 36.2534 -15.902, 36.3264 -15.9678, 36.3993 -16.0338, 36.4723 -16.1, 36.5452 -16.1663, 36.6181 -16.2327, 36.6909 -16.2994, 36.7637 -16.3662, 36.8365 -16.4331, 36.9093 -16.5002, 36.982 -16.5675, 37.0548 -16.6349, 37.1274 -16.7025, 37.2001 -16.7702, 37.2727 -16.8381, 37.3453 -16.9061, 37.4179 -16.9743, 37.4905 -17.0427, 37.563 -17.1112, 37.6355 -17.1799, 37.708 -17.2488, 37.7804 -17.3178, 37.8528 -17.387, 37.9252 -17.4563, 37.9976 -17.5258, 38.07 -17.5955, 38.1423 -17.6653, 38.2146 -17.7353, 38.2869 -17.8054, 38.3591 -17.8757, 38.4313 -17.9462, 38.5035 -18.0168, 38.5757 -18.0876, 38.6479 -18.1586, 38.72 -18.2297, 38.7921 -18.301, 38.8642 -18.3724, 38.9363 -18.4441, 39.0083 -18.5158, 39.0803 -18.5878, 39.1523 -18.6599, 39.2243 -18.7321, 39.2963 -18.8046, 39.3682 -18.8772, 39.4401 -18.9499, 39.512 -19.0229, 39.5839 -19.096, 39.6557 -19.1692, 39.7276 -19.2427, 39.7994 -19.3162, 39.8712 -19.39, 39.943 -19.4639, 40.0147 -19.538, 40.0865 -19.6123, 40.1582 -19.6867, 40.2299 -19.7613, 40.3016 -19.836, 40.3732 -19.911, 40.4449 -19.9861, 40.5165 -20.0613, 40.5881 -20.1367, 40.6597 -20.2123, 40.7313 -20.2881, 40.8029 -20.364, 40.8745 -20.4401, 40.946 -20.5163, 41.0177 -20.5927, 41.0894 -20.6691, 41.1612 -20.7457, 41.233 -20.8224, 41.3049 -20.8992, 41.3768 -20.9761, 41.4489 -21.0531, 41.5209 -21.1303, 41.5931 -21.2075, 41.6652 -21.2849, 41.7375 -21.3623, 41.8098 -21.4399, 41.8822 -21.5176, 41.9546 -21.5954, 42.0271 -21.6734, 42.0996 -21.7514, 42.1722 -21.8295, 42.2448 -21.9078, 42.3175 -21.9862, 42.3903 -22.0647, 42.4631 -22.1433, 42.5359 -22.222, 42.6089 -22.3008, 42.6818 -22.3798, 42.7548 -22.4588, 42.8279 -22.538, 42.901 -22.6173, 42.9742 -22.6967, 43.0474 -22.7762, 43.1207 -22.8558, 43.194 -22.9355, 43.2674 -23.0154, 43.3408 -23.0954, 43.4143 -23.1754, 43.4878 -23.2556, 43.5613 -23.3359, 43.6349 -23.4164, 43.7086 -23.4969, 43.7823 -23.5775, 43.856 -23.6583, 43.9298 -23.7392, 44.0037 -23.8202, 44.0775 -23.9013, 44.1515 -23.9825, 44.2254 -24.0639, 44.2994 -24.1453, 44.3735 -24.2269, 44.4476 -24.3085, 44.5217 -24.3903, 44.5959 -24.4723, 44.6701 -24.5543, 44.7443 -24.6364, 44.8186 -24.7187, 44.893 -24.8011, 44.9673 -24.8835, 45.0417 -24.9661, 45.1162 -25.0489, 45.1907 -25.1317, 45.2652 -25.2147, 45.3397 -25.2977, 45.4143 -25.3809, 45.489 -25.4642, 45.5636 -25.5476, 45.6383 -25.6312, 45.7131 -25.7148, 45.7878 -25.7986, 45.8626 -25.8825, 45.9374 -25.9665, 46.0123 -26.0506, 46.0872 -26.1348, 46.1621 -26.2192, 46.2371 -26.3036, 46.3121 -26.3882, 46.3871 -26.4729, 46.4621 -26.5578, 46.5372 -26.6427, 46.6123 -26.7278, 46.6874 -26.8129, 46.7626 -26.8982, 46.8378 -26.9836, 46.913 -27.0692, 46.9882 -27.1548, 47.0635 -27.2406, 47.1388 -27.3265, 47.2141 -27.4125, 47.2894 -27.4986, 47.3648 -27.5849, 47.4402 -27.6713, 47.5156 -27.7578, 47.591 -27.8444, 47.6665 -27.9311, 47.742 -28.0179, 47.8174 -28.1049, 47.893 -28.192, 47.9685 -28.2792, 48.0441 -28.3666, 48.1196 -28.454, 48.1952 -28.5416, 48.2708 -28.6293, 48.3465 -28.7171, 48.4221 -28.8051, 48.4978 -28.8931, 48.5735 -28.9813, 48.6492 -29.0696, 48.7249 -29.1581, 48.8006 -29.2466, 48.8764 -29.3353, 48.9521 -29.4241, 49.0279 -29.513, 49.1037 -29.6021, 49.1795 -29.6912, 49.2553 -29.7805, 49.3311 -29.87, 49.4069 -29.9595, 49.4828 -30.0492, 49.5586 -30.139, 49.6345 -30.2289, 49.7104 -30.3189, 49.7863 -30.4091, 49.8622 -30.4994, 49.9381 -30.5898, 50.014 -30.6804, 50.0899 -30.7711, 50.1658 -30.8619, 50.2418 -30.9528, 50.3177 -31.0439, 50.3936 -31.1351, 50.4696 -31.2264, 50.5455 -31.3178, 50.6215 -31.4094, 50.6974 -31.5011, 50.7734 -31.5929, 50.8494 -31.6849, 50.9253 -31.7769, 51.0013 -31.8692, 51.0773 -31.9615, 51.1532 -32.054, 51.2292 -32.1466, 51.3052 -32.2393, 51.3811 -32.3322, 51.4571 -32.4252, 51.5331 -32.5183, 51.6091 -32.6115, 51.685 -32.7049, 51.761 -32.7984, 51.8369 -32.8921, 51.9129 -32.9859, 51.9888 -33.0798, 52.0648 -33.1738, 52.1407 -33.268, 52.2166 -33.3623, 52.2926 -33.4568, 52.3685 -33.5513, 52.4444 -33.6461, 52.5203 -33.7409, 52.5962 -33.8359, 52.6721 -33.931, 52.748 -34.0263, 52.8238 -34.1217, 52.8997 -34.2172, 52.9756 -34.3128, 53.0514 -34.4086, 53.1272 -34.5046, 53.203 -34.6006, 53.2788 -34.6968, 53.3546 -34.7932, 53.4304 -34.8897, 53.5062 -34.9863, 53.5819 -35.083, 53.6577 -35.1799, 53.7334 -35.277, 53.8091 -35.3741, 53.8848 -35.4714, 53.9604 -35.5689, 54.0361 -35.6665, 54.1117 -35.7642, 54.1874 -35.8621, 54.263 -35.9601, 54.3385 -36.0583, 54.4141 -36.1566, 54.4897 -36.255, 54.5652 -36.3536, 54.6407 -36.4523, 54.7162 -36.5512, 54.7916 -36.6502, 54.8671 -36.7493, 54.9425 -36.8486, 55.0179 -36.948, 55.0933 -37.0476, 55.1686 -37.1473, 55.2439 -37.2472, 55.3192 -37.3472, 55.3945 -37.4474, 55.4697 -37.5477, 55.545 -37.6482, 55.6202 -37.7487, 55.6953 -37.8495, 55.7705 -37.9504, 55.8456 -38.0514, 55.9207 -38.1526, 55.9957 -38.254, 56.0707 -38.3554, 56.1457 -38.4571, 56.2207 -38.5588, 56.2956 -38.6608, 56.3705 -38.7629, 56.4454 -38.8651, 56.5202 -38.9675, 56.595 -39.07, 56.6698 -39.1727, 56.7446 -39.2755, 56.8193 -39.3785, 56.8939 -39.4817, 56.9686 -39.5849, 57.0432 -39.6884, 57.1177 -39.792, 57.1923 -39.8957, 57.2668 -39.9996, 57.3412 -40.1037, 57.4156 -40.2079, 57.49 -40.3123, 57.5643 -40.4168, 57.6386 -40.5215, 57.7129 -40.6263, 57.7871 -40.7313, 57.8613 -40.8364, 57.9354 -40.9417, 58.0095 -41.0472, 58.0836 -41.1528, 58.1576 -41.2586, 58.2316 -41.3645, 58.3055 -41.4706, 58.3794 -41.5769, 58.4532 -41.6833, 58.527 -41.7899, 58.6008 -41.8966, 58.6745 -42.0035, 58.7481 -42.1106, 58.8218 -42.2178, 58.8953 -42.3252, 58.9688 -42.4327, 59.0423 -42.5404, 59.1157 -42.6483, 59.1891 -42.7563, 59.2624 -42.8645, 59.3357 -42.9728, 59.4089 -43.0814, 59.4821 -43.19, 59.5552 -43.2989, 59.6283 -43.4079, 59.7013 -43.5171, 59.7743 -43.6264, 59.8472 -43.736, 59.9201 -43.8456, 59.9929 -43.9555, 60.0656 -44.0655, 60.1383 -44.1757, 60.211 -44.286, 60.2836 -44.3966, 60.3561 -44.5073, 60.4286 -44.6181, 60.501 -44.7292, 60.5734 -44.8404, 60.6457 -44.9517, 60.7179 -45.0633, 60.7901 -45.175, 60.8623 -45.2869, 60.9343 -45.399, 61.0063 -45.5112, 61.0783 -45.6236, 61.1502 -45.7362, 61.222 -45.8489, 61.2938 -45.9619, 61.3655 -46.0749, 61.4373 -46.1882, 61.5092 -46.3015, 61.5811 -46.4149, 61.653 -46.5285, 61.725 -46.6421, 61.797 -46.7559, 61.8691 -46.8698, 61.9413 -46.9839, 62.0135 -47.098, 62.0857 -47.2123, 62.158 -47.3266, 62.2303 -47.4411, 62.3027 -47.5558, 62.3752 -47.6705, 62.4476 -47.7853, 62.5202 -47.9003, 62.5927 -48.0154, 62.6653 -48.1306, 62.738 -48.2459, 62.8107 -48.3614, 62.8835 -48.4769, 62.9563 -48.5926, 63.0291 -48.7084, 63.102 -48.8243, 63.1749 -48.9403, 63.2479 -49.0565, 63.3209 -49.1728, 63.394 -49.2892, 63.4671 -49.4057, 63.5402 -49.5223, 63.6134 -49.639, 63.6866 -49.7559, 63.7599 -49.8729, 63.8332 -49.99, 63.9066 -50.1072, 63.98 -50.2246, 64.0534 -50.342, 64.1269 -50.4596, 64.2004 -50.5773, 64.2739 -50.6951, 64.3475 -50.8131, 64.4212 -50.9311, 64.4948 -51.0493, 64.5685 -51.1676, 64.6423 -51.286, 64.7161 -51.4046, 64.7899 -51.5232, 64.8637 -51.642, 64.9376 -51.7609, 65.0116 -51.8799, 65.0855 -51.9991, 65.1595 -52.1183, 65.2336 -52.2377, 65.3076 -52.3572, 65.3818 -52.4768, 65.4559 -52.5966, 65.5301 -52.7165, 65.6043 -52.8364, 65.6785 -52.9566, 65.7528 -53.0768, 65.8271 -53.1971, 65.9014 -53.3176, 65.9758 -53.4382, 66.0502 -53.5589, 66.1246 -53.6797, 66.1991 -53.8007, 66.2736 -53.9218, 66.3481 -54.043, 66.4227 -54.1643, 66.4973 -54.2858, 66.5719 -54.4073, 66.6465 -54.529, 66.7212 -54.6508, 66.7959 -54.7728, 66.8706 -54.8948, 66.9454 -55.017, 67.0202 -55.1393, 67.095 -55.2618, 67.1698 -55.3843, 67.2447 -55.507, 67.3196 -55.6298, 67.3945 -55.7527, 67.4694 -55.8757, 67.5444 -55.9989, 67.6194 -56.1222, 67.6944 -56.2456, 67.7694 -56.3692, 67.8445 -56.4928, 67.9196 -56.6166, 67.9947 -56.7405, 68.0698 -56.8646, 68.145 -56.9887, 68.2201 -57.113, 68.2953 -57.2374, 68.3705 -57.362, 68.4458 -57.4867, 68.521 -57.6114, 68.5963 -57.7364, 68.6716 -57.8614, 68.7469 -57.9866, 68.8222 -58.1119, 68.8976 -58.2373, 68.973 -58.3628, 69.0483 -58.4885, 69.1237 -58.6143, 69.1992 -58.7402, 69.2746 -58.8663, 69.3501 -58.9924, 69.4255 -59.1187, 69.501 -59.2452, 69.5765 -59.3717, 69.652 -59.4984, 69.7276 -59.6252, 69.8031 -59.7522, 69.8787 -59.8792, 69.9542 -60.0064, 70.0298 -60.1338, 70.1054 -60.2612, 70.181 -60.3888, 70.2566 -60.5165, 70.3323 -60.6443, 70.4079 -60.7723, 70.4836 -60.9004, 70.5592 -61.0286, 70.6349 -61.157, 70.7106 -61.2855, 70.7863 -61.4141, 70.862 -61.5428, 70.9377 -61.6717, 71.0134 -61.8007, 71.0891 -61.9298, 71.1648 -62.0591, 71.2406 -62.1885, 71.3163 -62.318, 71.3921 -62.4477, 71.4678 -62.5775, 71.5436 -62.7074, 71.6193 -62.8374, 71.6951 -62.9676, 71.7709 -63.0979, 71.8467 -63.2284, 71.9224 -63.359, 71.9982 -63.4897, 72.074 -63.6205, 72.1498 -63.7515, 72.2256 -63.8826, 72.3014 -64.0138, 72.3772 -64.1452, 72.4529 -64.2767, 72.5287 -64.4084, 72.6045 -64.5401, 72.6803 -64.6721, 72.7561 -64.8041, 72.8319 -64.9363, 72.9077 -65.0686, 72.9835 -65.201, 73.0592 -65.3336, 73.135 -65.4663, 73.2108 -65.5992, 73.2865 -65.7322, 73.3623 -65.8653, 73.4381 -65.9986, 73.5138 -66.1319, 73.5896 -66.2655, 73.6653 -66.3991, 73.741 -66.5329, 73.8168 -66.6669, 73.8925 -66.801, 73.9682 -66.9352, 74.0439 -67.0695, 74.1196 -67.204, 74.1953 -67.3386, 74.2709 -67.4734, 74.3466 -67.6083, 74.4223 -67.7433, 74.4979 -67.8785, 74.5735 -68.0138, 74.6492 -68.1493, 74.7248 -68.2849, 74.8004 -68.4206, 74.8759 -68.5565, 74.9515 -68.6925, 75.0271 -68.8287, 75.1026 -68.965, 75.1781 -69.1014, 75.2536 -69.238, 75.3291 -69.3747, 75.4046 -69.5115, 75.4801 -69.6485, 75.5555 -69.7857, 75.6309 -69.923, 75.7064 -70.0604, 75.7817 -70.198, 75.8571 -70.3357, 75.9325 -70.4735, 76.0078 -70.6115, 76.0831 -70.7496, 76.1584 -70.8879, 76.2337 -71.0264, 76.3089 -71.1649, 76.3841 -71.3036, 76.4594 -71.4425, 76.5345 -71.5815, 76.6097 -71.7206, 76.6848 -71.8599, 76.7599 -71.9994, 76.835 -72.1389, 76.9101 -72.2787, 76.9851 -72.4185, 77.0601 -72.5585, 77.1351 -72.6987, 77.2101 -72.839, 77.285 -72.9795, 77.3599 -73.1201, 77.4348 -73.2608, 77.5096 -73.4017, 77.5844 -73.5428, 77.6592 -73.684, 77.734 -73.8253, 77.8087 -73.9668, 77.8834 -74.1084, 77.9581 -74.2502, 78.0327 -74.3922, 78.1073 -74.5343, 78.1819 -74.6765, 78.2564 -74.8189, 78.3309 -74.9614, 78.4054 -75.1041, 78.4798 -75.2469, 78.5542 -75.3899, 78.6285 -75.5331, 78.7029 -75.6764, 78.7771 -75.8198, 78.8514 -75.9634, 78.9256 -76.1072, 78.9998 -76.2511, 79.0739 -76.3951, 79.148 -76.5393, 79.222 -76.6837, 79.2961 -76.8282, 79.37 -76.9729, 79.444 -77.1177, 79.5179 -77.2627, 79.5917 -77.4078, 79.6655 -77.5531, 79.7393 -77.6985, 79.813 -77.8441, 79.8867 -77.9899, 79.9603 -78.1358, 80.0339 -78.2819, 80.1074 -78.4281, 80.1809 -78.5745, 80.2544 -78.721, 80.3278 -78.8677, 80.4011 -79.0145, 80.4744 -79.1616, 80.5477 -79.3087, 80.6209 -79.456, 80.6941 -79.6035, 80.7672 -79.7512, 80.8402 -79.899, 80.9132 -80.0469, 80.9862 -80.1951, 81.0591 -80.3433, 81.132 -80.4918, 81.2048 -80.6404, 81.2775 -80.7892, 81.3502 -80.9381, 81.4228 -81.0872, 81.4954 -81.2364, 81.5679 -81.3858, 81.6404 -81.5354, 81.7128 -81.6852, 81.7852 -81.8351, 81.8576 -81.9851, 81.9301 -82.1352, 82.0026 -82.2855, 82.0751 -82.4359, 82.1477 -82.5864, 82.2203 -82.737, 82.2929 -82.8878, 82.3656 -83.0387, 82.4383 -83.1897, 82.511 -83.3408, 82.5838 -83.4921, 82.6566 -83.6434, 82.7295 -83.7949, 82.8024 -83.9466, 82.8753 -84.0983, 82.9483 -84.2502, 83.0213 -84.4022, 83.0943 -84.5543, 83.1674 -84.7065, 83.2405 -84.8589, 83.3136 -85.0114, 83.3868 -85.164, 83.46 -85.3167, 83.5333 -85.4696, 83.6065 -85.6226, 83.6799 -85.7757, 83.7532 -85.9289, 83.8266 -86.0823, 83.9 -86.2357, 83.9734 -86.3894, 84.0469 -86.5431, 84.1204 -86.6969, 84.1939 -86.8509, 84.2675 -87.005, 84.3411 -87.1592, 84.4147 -87.3136, 84.4884 -87.4681, 84.5621 -87.6227, 84.6358 -87.7774, 84.7095 -87.9323, 84.7833 -88.0872, 84.8571 -88.2423, 84.931 -88.3976, 85.0048 -88.5529, 85.0787 -88.7084, 85.1527 -88.864, 85.2266 -89.0197, 85.3006 -89.1756, 85.3746 -89.3316, 85.4487 -89.4877, 85.5227 -89.6439, 85.5968 -89.8002, 85.6709 -89.9567, 85.7451 -90.1133, 85.8193 -90.2701, 85.8935 -90.4269, 85.9677 -90.5839, 86.0419 -90.741, 86.1162 -90.8983, 86.1905 -91.0556, 86.2649 -91.2131, 86.3392 -91.3707, 86.4136 -91.5285, 86.488 -91.6863, 86.5624 -91.8443, 86.6369 -92.0024, 86.7113 -92.1607, 86.7858 -92.3191, 86.8604 -92.4776, 86.9349 -92.6362, 87.0095 -92.795, 87.0841 -92.9538, 87.1587 -93.1129, 87.2333 -93.272, 87.308 -93.4313, 87.3826 -93.5907, 87.4573 -93.7502, 87.532 -93.9098, 87.6068 -94.0696, 87.6815 -94.2295, 87.7563 -94.3895, 87.8311 -94.5497, 87.9059 -94.71, 87.9808 -94.8704, 88.0556 -95.0309, 88.1305 -95.1916, 88.2054 -95.3524, 88.2803 -95.5133, 88.3552 -95.6744, 88.4302 -95.8356, 88.5051 -95.9969, 88.5801 -96.1583, 88.6551 -96.3199, 88.7301 -96.4816, 88.8052 -96.6434, 88.8802 -96.8054, 88.9553 -96.9675, 89.0303 -97.1297, 89.1054 -97.292, 89.1805 -97.4545, 89.2557 -97.6171, 89.3308 -97.7798, 89.406 -97.9427, 89.4811 -98.1057, 89.5563 -98.2688, 89.6315 -98.4321, 89.7067 -98.5955, 89.7819 -98.759, 89.8572 -98.9226, 89.9324 -99.0864, 90.0077 -99.2503, 90.0829 -99.4143, 90.1582 -99.5785, 90.2335 -99.7428, 90.3088 -99.9072, 90.3841 -100.072, 90.4594 -100.236, 90.5347 -100.401, 90.6101 -100.566, 90.6854 -100.731, 90.7608 -100.897, 90.8362 -101.062, 90.9115 -101.227, 90.9869 -101.393, 91.0623 -101.559, 91.1377 -101.725, 91.2131 -101.891, 91.2885 -102.057, 91.3639 -102.223, 91.4394 -102.389, 91.5148 -102.556, 91.5902 -102.723, 91.6657 -102.889, 91.7411 -103.056, 91.8166 -103.223, 91.892 -103.391, 91.9675 -103.558, 92.043 -103.725, 92.1184 -103.893, 92.1939 -104.061, 92.2694 -104.229, 92.3449 -104.397, 92.4204 -104.565, 92.4958 -104.733, 92.5713 -104.901, 92.6468 -105.07, 92.7223 -105.239, 92.7978 -105.407, 92.8733 -105.576, 92.9488 -105.745, 93.0243 -105.915, 93.0998 -106.084, 93.1753 -106.253, 93.2507 -106.423, 93.3262 -106.593, 93.4017 -106.763, 93.4772 -106.933, 93.5527 -107.103, 93.6282 -107.273, 93.7037 -107.444, 93.7791 -107.614, 93.8546 -107.785, 93.9301 -107.956, 94.0055 -108.127, 94.081 -108.298, 94.1564 -108.469, 94.2319 -108.64, 94.3073 -108.812, 94.3828 -108.984, 94.4582 -109.155, 94.5336 -109.327, 94.6091 -109.499, 94.6845 -109.671, 94.7599 -109.844, 94.8353 -110.016, 94.9107 -110.189, 94.9861 -110.362, 95.0614 -110.535, 95.1368 -110.708, 95.2122 -110.881, 95.2875 -111.054, 95.3628 -111.228, 95.4382 -111.401, 95.5135 -111.575, 95.5888 -111.749, 95.6641 -111.923, 95.7394 -112.097, 95.8146 -112.271, 95.8899 -112.446, 95.9651 -112.62, 96.0404 -112.795, 96.1156 -112.97, 96.1908 -113.145, 96.266 -113.32, 96.3412 -113.495, 96.4163 -113.67, 96.4915 -113.846, 96.5666 -114.022, 96.6417 -114.197, 96.7168 -114.373, 96.7919 -114.549, 96.867 -114.726, 96.942 -114.902, 97.0171 -115.079, 97.0921 -115.255, 97.1671 -115.432, 97.2421 -115.609, 97.317 -115.786, 97.392 -115.963, 97.4669 -116.141, 97.5418 -116.318, 97.6167 -116.496, 97.6915 -116.674, 97.7664 -116.852, 97.8412 -117.03, 97.916 -117.208, 97.9908 -117.386, 98.0655 -117.565, 98.1403 -117.744, 98.215 -117.922, 98.2896 -118.101, 98.3643 -118.28, 98.4389 -118.46, 98.5136 -118.639, 98.5881 -118.819, 98.6627 -118.998, 98.7372 -119.178, 98.8118 -119.358, 98.8862 -119.538, 98.9607 -119.719, 99.0351 -119.899, 99.1095 -120.079, 99.1839 -120.26, 99.2582 -120.441, 99.3326 -120.622, 99.4069 -120.803, 99.4811 -120.984, 99.5553 -121.166, 99.6295 -121.347, 99.7037 -121.529, 99.7778 -121.711, 99.852 -121.893, 99.926 -122.075, 100 -122.258, 100.074 -122.44, 100.148 -122.623, 100.222 -122.805, 100.296 -122.988, 100.37 -123.171, 100.444 -123.355, 100.517 -123.538, 100.591 -123.721, 100.665 -123.905, 100.739 -124.089, 100.812 -124.273, 100.886 -124.457, 100.96 -124.641, 101.033 -124.826, 101.107 -125.01, 101.18 -125.195, 101.254 -125.38, 101.327 -125.565, 101.4 -125.75, 101.474 -125.935, 101.547 -126.121, 101.62 -126.306, 101.693 -126.492, 101.767 -126.678, 101.84 -126.864, 101.913 -127.05, 101.986 -127.237, 102.059 -127.423, 102.132 -127.61, 102.205 -127.797, 102.278 -127.984, 102.35 -128.171, 102.423 -128.358, 102.496 -128.545, 102.569 -128.733, 102.643 -128.921, 102.716 -129.108, 102.789 -129.296, 102.862 -129.484, 102.935 -129.672, 103.008 -129.86, 103.081 -130.049, 103.155 -130.237, 103.228 -130.426, 103.301 -130.615, 103.374 -130.804, 103.448 -130.993, 103.521 -131.182, 103.594 -131.371, 103.668 -131.561, 103.741 -131.75, 103.814 -131.94, 103.888 -132.13, 103.961 -132.319, 104.035 -132.51, 104.108 -132.7, 104.182 -132.89, 104.255 -133.08, 104.329 -133.271, 104.403 -133.462, 104.476 -133.653, 104.55 -133.844, 104.624 -134.035, 104.697 -134.226, 104.771 -134.417, 104.845 -134.609, 104.918 -134.8, 104.992 -134.992, 105.066 -135.184, 105.14 -135.376, 105.214 -135.568, 105.287 -135.76, 105.361 -135.953, 105.435 -136.145, 105.509 -136.338, 105.583 -136.531, 105.657 -136.723, 105.731 -136.916, 105.805 -137.11, 105.879 -137.303, 105.953 -137.496, 106.027 -137.69, 106.101 -137.884, 106.175 -138.077, 106.249 -138.271, 106.323 -138.465, 106.397 -138.66, 106.471 -138.854, 106.546 -139.048, 106.62 -139.243, 106.694 -139.438, 106.768 -139.632, 106.842 -139.827, 106.917 -140.023, 106.991 -140.218, 107.065 -140.413, 107.139 -140.609, 107.214 -140.804, 107.288 -141, 107.362 -141.196, 107.437 -141.392, 107.511 -141.588, 107.585 -141.784, 107.66 -141.981, 107.734 -142.177, 107.809 -142.374, 107.883 -142.571, 107.958 -142.768, 108.032 -142.965, 108.107 -143.162, 108.181 -143.359, 108.256 -143.557, 108.33 -143.754, 108.405 -143.952, 108.479 -144.15, 108.554 -144.348, 108.628 -144.546, 108.703 -144.744, 108.777 -144.943, 108.852 -145.141, 108.927 -145.34, 109.001 -145.539, 109.076 -145.738, 109.151 -145.937, 109.225 -146.136, 109.3 -146.335, 109.375 -146.535, 109.449 -146.734, 109.524 -146.934, 109.599 -147.134, 109.674 -147.334, 109.748 -147.534, 109.823 -147.734, 109.898 -147.934, 109.973 -148.135, 110.048 -148.335, 110.122 -148.536, 110.197 -148.737, 110.272 -148.938, 110.347 -149.139, 110.422 -149.34, 110.497 -149.542, 110.572 -149.743, 110.646 -149.945, 110.721 -150.147, 110.796 -150.349, 110.871 -150.551, 110.946 -150.753, 111.021 -150.956, 111.096 -151.158, 111.171 -151.361, 111.246 -151.563, 111.321 -151.766, 111.396 -151.969, 111.471 -152.172, 111.546 -152.376, 111.621 -152.579, 111.696 -152.783, 111.771 -152.986, 111.846 -153.19, 111.921 -153.394, 111.996 -153.598, 112.071 -153.802, 112.146 -154.007, 112.221 -154.211, 112.296 -154.416, 112.371 -154.62, 112.446 -154.825, 112.521 -155.03, 112.596 -155.235, 112.671 -155.441, 112.746 -155.646, 112.821 -155.852, 112.896 -156.057, 112.971 -156.263, 113.046 -156.469, 113.121 -156.675, 113.197 -156.881, 113.272 -157.088, 113.347 -157.294, 113.422 -157.501, 113.497 -157.708, 113.572 -157.915, 113.647 -158.122, 113.722 -158.329, 113.797 -158.536, 113.872 -158.743, 113.948 -158.951, 114.023 -159.159, 114.098 -159.367, 114.173 -159.574, 114.248 -159.783, 114.323 -159.991, 114.398 -160.199, 114.473 -160.408, 114.549 -160.616, 114.624 -160.825, 114.699 -161.034, 114.774 -161.243, 114.849 -161.452, 114.924 -161.662, 114.999 -161.871, 115.074 -162.081, 115.15 -162.29, 115.225 -162.5, 115.3 -162.71, 115.375 -162.92, 115.45 -163.131, 115.525 -163.341, 115.6 -163.552, 115.675 -163.762, 115.75 -163.973, 115.826 -164.184, 115.901 -164.395, 115.976 -164.606, 116.051 -164.818, 116.126 -165.029, 116.201 -165.241, 116.276 -165.453, 116.351 -165.664, 116.426 -165.877, 116.501 -166.089, 116.576 -166.301, 116.651 -166.513, 116.727 -166.726, 116.802 -166.939, 116.877 -167.152, 116.952 -167.365, 117.027 -167.578, 117.102 -167.791, 117.177 -168.005, 117.252 -168.218, 117.327 -168.432, 117.402 -168.646, 117.477 -168.86, 117.552 -169.074, 117.627 -169.288, 117.702 -169.502, 117.777 -169.717, 117.852 -169.931, 117.927 -170.146, 118.002 -170.361, 118.076 -170.576, 118.151 -170.791, 118.226 -171.007, 118.301 -171.222, 118.376 -171.438, 118.451 -171.654, 118.526 -171.87, 118.601 -172.086, 118.676 -172.302, 118.75 -172.518, 118.825 -172.735, 118.9 -172.951, 118.975 -173.168, 119.05 -173.385, 119.125 -173.602, 119.199 -173.819, 119.274 -174.036, 119.349 -174.254, 119.424 -174.471, 119.498 -174.689, 119.573 -174.907, 119.648 -175.125, 119.723 -175.343, 119.797 -175.561, 119.872 -175.78, 119.947 -175.998, 120.021 -176.217, 120.096 -176.436, 120.17 -176.655, 120.245 -176.874, 120.32 -177.093, 120.394 -177.312, 120.469 -177.532, 120.543 -177.752, 120.618 -177.971, 120.692 -178.191, 120.767 -178.412, 120.841 -178.632, 120.916 -178.852, 120.99 -179.073, 121.065 -179.293, 121.139 -179.514, 121.214 -179.735, 121.288 -179.956, 121.362 -180.177, 121.437 -180.399, 121.511 -180.62, 121.585 -180.842, 121.66 -181.064, 121.734 -181.286, 121.808 -181.508, 121.883 -181.73, 121.957 -181.952, 122.031 -182.175, 122.105 -182.397, 122.179 -182.62, 122.253 -182.843, 122.328 -183.066, 122.402 -183.289, 122.476 -183.513, 122.55 -183.736, 122.624 -183.96, 122.698 -184.184, 122.772 -184.408, 122.846 -184.632, 122.92 -184.856, 122.994 -185.08, 123.068 -185.305, 123.143 -185.529, 123.217 -185.754, 123.291 -185.979, 123.365 -186.204, 123.439 -186.429, 123.513 -186.654, 123.588 -186.879, 123.662 -187.105, 123.736 -187.331, 123.81 -187.556, 123.885 -187.782, 123.959 -188.008, 124.033 -188.234, 124.108 -188.461, 124.182 -188.687, 124.256 -188.914, 124.331 -189.14, 124.405 -189.367, 124.479 -189.594, 124.554 -189.821, 124.628 -190.048, 124.703 -190.276, 124.777 -190.503, 124.851 -190.731, 124.926 -190.959, 125 -191.186, 125.075 -191.414, 125.149 -191.643, 125.224 -191.871, 125.298 -192.099, 125.373 -192.328, 125.447 -192.557, 125.522 -192.785, 125.596 -193.014, 125.671 -193.243, 125.745 -193.473, 125.82 -193.702, 125.895 -193.931, 125.969 -194.161, 126.044 -194.391, 126.118 -194.621, 126.193 -194.851, 126.268 -195.081, 126.342 -195.311, 126.417 -195.541, 126.492 -195.772, 126.566 -196.003, 126.641 -196.233, 126.716 -196.464, 126.79 -196.695, 126.865 -196.927, 126.94 -197.158, 127.014 -197.389, 127.089 -197.621, 127.164 -197.853, 127.239 -198.085, 127.313 -198.317, 127.388 -198.549, 127.463 -198.781, 127.538 -199.014, 127.612 -199.246, 127.687 -199.479, 127.762 -199.712, 127.837 -199.945, 127.912 -200.178, 127.986 -200.411, 128.061 -200.644, 128.136 -200.878, 128.211 -201.111, 128.286 -201.345, 128.36 -201.579, 128.435 -201.813, 128.51 -202.047, 128.585 -202.281, 128.66 -202.516, 128.735 -202.75, 128.81 -202.985, 128.884 -203.22, 128.959 -203.455, 129.034 -203.69, 129.109 -203.925, 129.184 -204.16, 129.259 -204.396, 129.334 -204.632, 129.409 -204.867, 129.484 -205.103, 129.559 -205.339, 129.633 -205.575, 129.708 -205.812, 129.783 -206.048, 129.858 -206.285, 129.933 -206.521, 130.008 -206.758, 130.083 -206.995, 130.158 -207.232, 130.233 -207.47, 130.308 -207.707, 130.383 -207.945, 130.458 -208.182, 130.533 -208.42, 130.608 -208.658, 130.683 -208.896, 130.758 -209.134, 130.833 -209.372, 130.908 -209.611, 130.983 -209.85, 131.057 -210.088, 131.132 -210.327, 131.207 -210.566, 131.282 -210.805, 131.357 -211.045, 131.432 -211.284, 131.507 -211.524, 131.582 -211.763, 131.657 -212.003, 131.732 -212.243, 131.807 -212.483, 131.882 -212.723, 131.957 -212.964, 132.032 -213.204, 132.107 -213.445, 132.182 -213.686, 132.257 -213.927, 132.332 -214.168, 132.407 -214.409, 132.482 -214.65, 132.557 -214.892, 132.632 -215.133, 132.707 -215.375, 132.782 -215.617, 132.857 -215.859, 132.932 -216.101, 133.007 -216.343, 133.082 -216.586, 133.157 -216.828, 133.231 -217.071, 133.306 -217.314, 133.381 -217.557, 133.456 -217.8, 133.531 -218.043, 133.606 -218.286, 133.681 -218.53, 133.756 -218.773, 133.831 -219.017, 133.906 -219.261, 133.981 -219.505, 134.056 -219.749, 134.131 -219.994, 134.205 -220.238, 134.28 -220.483, 134.355 -220.728, 134.43 -220.972, 134.505 -221.217, 134.58 -221.463, 134.655 -221.708, 134.73 -221.953, 134.804 -222.199, 134.879 -222.445, 134.954 -222.69, 135.029 -222.936, 135.104 -223.183, 135.179 -223.429, 135.253 -223.675, 135.328 -223.922, 135.403 -224.168, 135.478 -224.415, 135.553 -224.662, 135.627 -224.909, 135.702 -225.156, 135.777 -225.404, 135.852 -225.651, 135.926 -225.899, 136.001 -226.147, 136.076 -226.395, 136.151 -226.643, 136.225 -226.891, 136.3 -227.139, 136.375 -227.388, 136.45 -227.636, 136.524 -227.885, 136.599 -228.134, 136.674 -228.383, 136.748 -228.632, 136.823 -228.881, 136.897 -229.131, 136.972 -229.38, 137.047 -229.63, 137.121 -229.88, 137.196 -230.13, 137.271 -230.38, 137.345 -230.63, 137.42 -230.881, 137.494 -231.131, 137.569 -231.382, 137.643 -231.633, 137.718 -231.884, 137.792 -232.135, 137.867 -232.386, 137.941 -232.638, 138.016 -232.889, 138.09 -233.141, 138.165 -233.393, 138.239 -233.645, 138.314 -233.897, 138.388 -234.149, 138.462 -234.401, 138.537 -234.654, 138.611 -234.907, 138.685 -235.159, 138.76 -235.412, 138.834 -235.665, 138.908 -235.919, 138.983 -236.172, 139.057 -236.425, 139.131 -236.679, 139.206 -236.933, 139.28 -237.187, 139.354 -237.441, 139.428 -237.695, 139.502 -237.949, 139.577 -238.204, 139.651 -238.459, 139.725 -238.713, 139.799 -238.968, 139.873 -239.223, 139.947 -239.478, 140.021 -239.734, 140.095 -239.989, 140.169 -240.245, 140.244 -240.501, 140.318 -240.757, 140.392 -241.013, 140.466 -241.269, 140.539 -241.525, 140.613 -241.782, 140.687 -242.038, 140.761 -242.295, 140.835 -242.552, 140.909 -242.809, 140.983 -243.066, 141.057 -243.323, 141.131 -243.581, 141.204 -243.838, 141.278 -244.096, 141.352 -244.354, 141.426 -244.612, 141.499 -244.87, 141.573 -245.128, 141.647 -245.387, 141.72 -245.646, 141.794 -245.904, 141.868 -246.163, 141.941 -246.422, 142.015 -246.681, 142.088 -246.941, 142.162 -247.2, 142.235 -247.46, 142.309 -247.719, 142.382 -247.979, 142.456 -248.239, 142.529 -248.5, 142.603 -248.76, 142.676 -249.02, 142.749 -249.281, 142.823 -249.542, 142.896 -249.803, 142.969 -250.064, 143.043 -250.325" fill="none" stroke="#000000" stroke-width="4.19999981" stroke-linecap="round" stroke-linejoin="round" transform="matrix(0.357143 0 -0 0.357143 146.773 174.484)" />
	<path d="M 0 207.164 L 0 -207.164" fill="none" stroke="#000000" stroke-width="2.79999995" stroke-linecap="round" stroke-linejoin="round" marker-end="url(#CustomMarker-01)" transform="matrix(0.357143 0 0 0.357143 147.78 100.497)" />
	<path d="M -343.789 0 L 343.79 0" fill="none" stroke="#000000" stroke-width="2.79999995" stroke-linecap="round" stroke-linejoin="round" marker-end="url(#CustomMarker-02)" transform="matrix(0.357143 0 0 0.357143 155.281 174.381)" />
	<path d="M -105.078 0 L 105.078 0" fill="none" stroke="#FF3600" stroke-width="2.79999995" stroke-linecap="round" stroke-linejoin="round" transform="matrix(0.357143 0 0 0.357143 69.4407 118.871)" />
	<path d="M -94.183 0 L 94.1813 0" fill="none" stroke="#FF3600" stroke-width="2.79999995" stroke-linecap="round" stroke-linejoin="round" transform="matrix(0.357143 0 0 0.357143 221.692 118.871)" />
	<path d="M 0 -77.7143 L 0 77.7144" fill="none" stroke="#FF4800" stroke-width="1.39999998" stroke-linecap="round" stroke-linejoin="round" stroke-dasharray="4.907, 3.493" transform="matrix(0.357143 0 0 0.357143 188.055 146.626)" />
	<g transform="matrix(1 0 -0 1 288.578 164.775)">
		<svg width="41.9408379" height="38.8559914">
			<defs />
			<path d="M 12.961 3.70342 C 12.9016 3.86094, 12.7966 3.93946, 12.6454 3.93897, 12.2141 3.93946, 11.8043 4.03368, 11.4162 4.22163, 11.028 4.40025, 10.6747 4.67211, 10.3567 5.03819 L 7.48598 8.21807, 9.35416 13.1567 C 9.40814 13.2931, 9.46064 13.406, 9.51168 13.4948, 9.56271 13.5841, 9.63142 13.6494, 9.71778 13.6906, 9.81495 13.7382, 9.95137 13.7657, 10.1266 13.7735, 10.3017 13.7814, 10.4946 13.7853, 10.7046 13.7848, 10.8504 13.7853, 10.9284 13.8481, 10.9392 13.9733, 10.9392 14.0052, 10.9338 14.039, 10.923 14.0753 L 10.8906 14.201 C 10.8312 14.358, 10.7262 14.4365, 10.5751 14.4365, 10.0363 14.4051, 9.49941 14.3894, 8.9655 14.3894 L 8.70689 14.3894 C 8.07632 14.4002, 7.44574 14.4159, 6.81467 14.4365, 6.66353 14.4365, 6.58795 14.3688, 6.58795 14.2324 L 6.58795 14.1617, 6.63654 14.0282 C 6.66892 13.8614, 6.76609 13.7799, 6.92802 13.7848, 7.05758 13.7853, 7.18418 13.7696, 7.30784 13.7382, 7.432 13.7068, 7.55075 13.6572, 7.66362 13.5885, 7.77697 13.5105, 7.83095 13.4502, 7.82556 13.408 L 7.82556 13.3923, 6.33719 9.49002, 3.19951 12.984 C 3.08665 13.1101, 3.03267 13.2303, 3.03807 13.3451, 3.03807 13.3981, 3.05181 13.4531, 3.07831 13.51, 3.16467 13.6936, 3.34526 13.7853, 3.62006 13.7848, 3.77121 13.7853, 3.84678 13.8584, 3.84678 14.0047 L 3.84678 14.0596, 3.81439 14.201 C 3.75501 14.358, 3.65245 14.4365, 3.50671 14.4365, 2.96789 14.4159, 2.42614 14.4002, 1.88143 14.3894 L 1.64687 14.3894 C 1.18363 14.3894, 0.709097 14.4051, 0.223772 14.4365, 0.143294 14.4365, 0.0839163 14.4105, 0.0456399 14.358, 0.013743 14.3271, -0.0024509 14.2903, -0.00294162 14.2481, -0.0024509 14.2172, 0.00294706 14.1857, 0.0132522 14.1539 L 0.0456399 14.0361 C 0.0893142 13.8638, 0.191875 13.7799, 0.352832 13.7848, 0.557954 13.7853, 0.763076 13.7632, 0.967708 13.7186, 1.17283 13.6744, 1.37746 13.6047, 1.58258 13.5105, 1.78771 13.4163, 1.97909 13.3, 2.15673 13.1611, 2.33437 13.0227, 2.49631 12.8667, 2.64156 12.6935 L 6.11097 8.8619, 4.47736 4.56709 C 4.42338 4.43656, 4.37381 4.32713, 4.32769 4.23782, 4.28205 4.149, 4.21335 4.08324, 4.12158 4.04104, 4.02442 3.99442, 3.88849 3.96596, 3.7133 3.95516, 3.53811 3.94486, 3.34526 3.93946, 3.13474 3.93897, 3.05426 3.93946, 2.99488 3.91345, 2.9571 3.86045, 2.92471 3.82954, 2.90852 3.79028, 2.90852 3.74268, 2.90852 3.71176, 2.91686 3.68281, 2.93256 3.65631 L 2.9571 3.53069 C 3.01647 3.37415, 3.12149 3.29563, 3.27263 3.29514, 3.81194 3.32704, 4.34584 3.34274, 4.87386 3.34225, 4.95483 3.34274, 5.04659 3.33734, 5.14866 3.32655, 5.77434 3.32704, 6.40246 3.31673, 7.03304 3.29514, 7.18418 3.29563, 7.25926 3.3663, 7.25926 3.50713 L 7.25926 3.56995, 7.21068 3.70342 C 7.17829 3.86094, 7.07868 3.93946, 6.91183 3.93897, 6.63163 3.93946, 6.38872 4.00767, 6.1836 4.14311, 6.07073 4.21181, 6.01675 4.26677, 6.02215 4.30799 L 6.02215 4.3237, 7.25926 7.58209, 9.8066 4.73198 C 9.88217 4.65935, 9.9283 4.57298, 9.9445 4.47288, 9.95529 4.44196, 9.96069 4.41301, 9.96069 4.38651, 9.96069 4.32958, 9.94744 4.27953, 9.91996 4.23733, 9.82869 4.03908, 9.6427 3.93946, 9.36201 3.93897, 9.22215 3.93946, 9.15198 3.8688, 9.15198 3.72698 L 9.15198 3.67202, 9.18388 3.53069 C 9.24374 3.37415, 9.34876 3.29563, 9.49941 3.29514, 10.0387 3.31673, 10.5834 3.32704, 11.133 3.32655, 11.2086 3.33734, 11.2817 3.34274, 11.3514 3.34225, 11.8151 3.34274, 12.2843 3.32704, 12.7588 3.29514, 12.9045 3.29563, 12.9826 3.3663, 12.9934 3.50713 L 12.9934 3.56209 Z" stroke="none" fill="#404080" />
			<rect />
		</svg>
	</g>
	<g transform="matrix(1 0 -0 1 140.829 0.801928)">
		<svg width="44.9695702" height="44.9039879">
			<defs />
			<path d="M 7.47739 3.69557 C 7.46169 3.76427, 7.42537 3.82169, 7.36845 3.8688, 7.31153 3.9159, 7.24282 3.93946, 7.16185 3.93897, 6.90864 3.93946, 6.66083 3.94486, 6.41792 3.95516, 6.1755 3.96596, 6.00031 3.99442, 5.89235 4.04104, 5.77949 4.07833, 5.69558 4.21426, 5.6416 4.44932 L 3.36906 13.298 C 3.34747 13.3981, 3.33667 13.4845, 3.33667 13.5571, 3.33667 13.6307, 3.35041 13.6754, 3.3774 13.6906, 3.45297 13.7382, 3.60902 13.7657, 3.84653 13.7735, 4.08404 13.7814, 4.33431 13.7853, 4.59832 13.7848, 4.74946 13.7853, 4.82503 13.8481, 4.82503 13.9733, 4.82503 14.0052, 4.81964 14.039, 4.80884 14.0753 L 4.77645 14.201 C 4.71707 14.358, 4.61451 14.4365, 4.46877 14.4365, 3.77341 14.4051, 3.06972 14.3894, 2.35817 14.3894, 1.65202 14.3894, 0.935075 14.4051, 0.206843 14.4365, 0.0674777 14.4365, -0.00269562 14.3688, -0.00318635 14.2324 L -0.00318635 14.1696, 0.0292014 14.0361 C 0.0728757 13.8638, 0.17789 13.7799, 0.344736 13.7848, 0.608745 13.7853, 0.862448 13.7814, 1.10487 13.7735, 1.34728 13.7657, 1.52247 13.7382, 1.63043 13.6906, 1.72759 13.6386, 1.80611 13.4973, 1.86499 13.2666 L 4.15372 4.41791 C 4.17532 4.31879, 4.18611 4.24027, 4.18611 4.18237, 4.18611 4.10434, 4.17286 4.05478, 4.14538 4.03319, 4.05951 3.99197, 3.89806 3.96596, 3.66055 3.95516, 3.42304 3.94486, 3.17768 3.93946, 2.92446 3.93897, 2.77332 3.93946, 2.69775 3.8688, 2.69775 3.72698 L 2.69775 3.67202, 2.73014 3.53069 C 2.78952 3.37415, 2.89208 3.29563, 3.03733 3.29514, 3.74397 3.31673, 4.45307 3.32704, 5.16461 3.32655, 5.88205 3.32704, 6.5936 3.31673, 7.29926 3.29514, 7.37483 3.29563, 7.4396 3.32164, 7.49358 3.37366, 7.51517 3.41586, 7.52597 3.45512, 7.52597 3.49143, 7.52597 3.52333, 7.51812 3.55228, 7.50143 3.5778 Z" stroke="none" fill="#404080" />
			<path d="M 3.17817 2.61728 C 3.14519 2.70522, 3.08776 2.74919, 3.00614 2.74919, 2.70441 2.7316, 2.40404 2.72281, 2.10506 2.72281 L 1.95584 2.72281 C 1.60271 2.72885, 1.24794 2.73765, 0.891795 2.74919, 0.810452 2.74919, 0.766484 2.71127, 0.760438 2.63487 L 0.760438 2.5997, 0.778575 2.52495 C 0.802758 2.42849, 0.861566 2.3815, 0.954999 2.38425, 1.06684 2.38452, 1.1666 2.38095, 1.25399 2.37353, 1.34137 2.36639, 1.42601 2.34056, 1.50736 2.29631, 1.53759 2.28202, 1.56342 2.26141, 1.5843 2.23476, 1.59639 2.21167, 1.60409 2.18804, 1.60711 2.16441 L 1.60711 2.13802, 1.49829 0.678262, -0.548182 0.678262, -1.26817 1.90939 C -1.30719 1.98001, -1.32698 2.04459, -1.32698 2.10285, -1.32698 2.15286, -1.31186 2.19848, -1.28164 2.23915, -1.21513 2.33616, -1.09147 2.38452, -0.910375 2.38425, -0.828758 2.38452, -0.785064 2.4197, -0.779018 2.48977, -0.779018 2.50764, -0.782041 2.5266, -0.788086 2.54693 L -0.806224 2.61728 C -0.8392 2.70522, -0.898283 2.74919, -0.982923 2.74919, -1.26048 2.73765, -1.53528 2.72885, -1.80706 2.72281 L -1.92908 2.72281 C -2.16458 2.72281, -2.40311 2.7316, -2.64467 2.74919, -2.68973 2.74919, -2.72299 2.73463, -2.74415 2.70522, -2.76228 2.68791, -2.77135 2.6673, -2.77135 2.64367, -2.77135 2.62635, -2.76833 2.60877, -2.76228 2.5909 L -2.74415 2.52495 C -2.71996 2.42849, -2.66116 2.3815, -2.56772 2.38425, -2.47099 2.38452, -2.37563 2.37436, -2.2822 2.35375, -2.18877 2.33341, -2.1011 2.29659, -2.01976 2.24382, -1.93814 2.19106, -1.86257 2.12731, -1.79332 2.05256, -1.7238 1.97781, -1.66197 1.89345, -1.60783 1.79947 L 1.58897 -3.67464 C 1.64339 -3.75654, 1.71264 -3.79611, 1.79728 -3.79336 L 1.88329 -3.79336 C 1.98002 -3.79308, 2.03416 -3.74774, 2.04625 -3.65706 L 2.44472 2.07207 C 2.45076 2.14847, 2.45983 2.20645, 2.47192 2.24602, 2.48401 2.28559, 2.50517 2.31417, 2.5354 2.33149, 2.57772 2.35814, 2.6478 2.37353, 2.7459 2.37793, 2.84401 2.38233, 2.95503 2.38452, 3.07869 2.38425, 3.16333 2.38452, 3.20538 2.4197, 3.20538 2.48977, 3.20538 2.50764, 3.20235 2.5266, 3.19631 2.54693 Z M 1.28119 -2.43912 L -0.330812 0.322116, 1.47136 0.322116 Z" stroke="none" fill="#404080" transform="matrix(1.12 0 0 1 10.3305 13.9768)" />
			<rect />
		</svg>
	</g>
	<path d="M -126.494 0 L 126.494 0" fill="none" stroke="#000000" stroke-width="1.39999998" stroke-linecap="round" stroke-linejoin="round" stroke-dasharray="4.907, 3.493" transform="matrix(0.357143 0 0 0.357143 149.404 118.871)" />
	<g transform="matrix(1 0 -0 1 137.973 98.6134)">
		<svg width="20.9560547" height="38.8559914">
			<defs />
			<path d="M 5.84808 14.3717 C 4.87616 14.3409, 3.93022 14.3255, 3.01072 14.3255, 2.09171 14.3255, 1.14576 14.3409, 0.173363 14.3717 L 0.173363 13.7099, 0.720637 13.7099 C 0.894725 13.7104, 1.05872 13.708, 1.21164 13.7027, 1.36505 13.6979, 1.51029 13.6849, 1.64783 13.6642, 1.78537 13.644, 1.90415 13.6234, 2.00418 13.6022, 2.08882 13.5873, 2.15903 13.5402, 2.21434 13.4603, 2.27012 13.381, 2.29753 13.2925, 2.29753 13.1944 L 2.29753 4.52265 C 2.03352 4.65154, 1.70842 4.74916, 1.32273 4.81553, 0.937045 4.88237, 0.514327 4.91556, 0.0545789 4.91508 L 0.0545789 4.26104 C 0.688897 4.26152, 1.27416 4.18602, 1.81037 4.03453, 2.34659 3.88353, 2.81018 3.59979, 3.20116 3.18381 L 3.4469 3.18381 C 3.62099 3.18429, 3.70804 3.26893, 3.70804 3.43773 L 3.70804 13.1944 C 3.70804 13.2973, 3.73449 13.3872, 3.78739 13.4642, 3.84029 13.5411, 3.91723 13.5873, 4.01726 13.6022, 4.1019 13.6234, 4.21059 13.644, 4.34236 13.6642, 4.47461 13.6849, 4.62369 13.6979, 4.79008 13.7027, 4.95648 13.708, 5.11902 13.7104, 5.27724 13.7099 L 5.84808 13.7099, 5.84808 14.3717 Z" stroke="none" fill="#B300B3" />
			<rect />
		</svg>
	</g>
	<g transform="matrix(1 0 -0 1 143.202 174.214)">
		<svg width="33.0709801" height="36.0479965">
			<defs />
			<path d="M 9.151 12.0496 C 9.08622 12.3068, 9.01065 12.5816, 8.92428 12.8745, 8.83792 13.168, 8.7275 13.4428, 8.59256 13.699, 8.4581 13.9556, 8.28831 14.173, 8.08319 14.3506, 7.87855 14.5283, 7.617 14.6171, 7.29901 14.6171, 6.86767 14.6171, 6.51337 14.4983, 6.23562 14.2603, 5.95787 14.0223, 5.7974 13.7799, 5.75422 13.5336, 5.53879 13.8064, 5.24632 14.0552, 4.8768 14.28, 4.50778 14.5047, 4.09361 14.6171, 3.63528 14.6171, 3.32269 14.6171, 3.02236 14.5808, 2.73382 14.5072, 2.44527 14.4341, 2.22837 14.3325, 2.08263 14.201 L 1.26607 17.318 C 1.21749 17.5222, 1.1164 17.6743, 0.962801 17.7734, 0.809205 17.873, 0.651683 17.9226, 0.489745 17.9226, 0.333695 17.9226, 0.204144 17.8676, 0.101092 17.7577, 0.0314097 17.69, -0.00392228 17.5904, -0.00392228 17.4594, -0.00392228 17.4123, 0.00147569 17.3548, 0.0122716 17.2866 L 2.44675 7.77838 C 2.49533 7.57473, 2.59642 7.4231, 2.75001 7.32348, 2.90361 7.22436, 3.05573 7.1743, 3.20688 7.17381, 3.37421 7.1743, 3.51456 7.22387, 3.62743 7.32299, 3.6976 7.402, 3.73244 7.50652, 3.73244 7.63706, 3.73244 7.69496, 3.72704 7.75287, 3.71625 7.80979 L 2.73775 11.6099 C 2.65138 11.9613, 2.5974 12.3014, 2.57581 12.6306, 2.56501 12.694, 2.55961 12.7489, 2.55961 12.7955, 2.55961 13.0527, 2.60574 13.2907, 2.69751 13.51, 2.77848 13.699, 2.90901 13.8442, 3.08959 13.9463, 3.27018 14.0483, 3.47923 14.0994, 3.71625 14.0989, 4.14219 14.0994, 4.5225 13.9698, 4.85669 13.7107, 5.19087 13.4516, 5.49266 13.1125, 5.76207 12.6935, 5.76207 12.6782, 5.76501 12.6655, 5.77041 12.6547, 5.77581 12.6444, 5.77826 12.6311, 5.77826 12.6149 L 6.96728 7.95897 C 7.01586 7.75532, 7.11695 7.60221, 7.27055 7.50014, 7.42464 7.39807, 7.57676 7.34704, 7.72741 7.34655, 7.89475 7.34704, 8.0351 7.39955, 8.14796 7.50358, 8.21813 7.58259, 8.25298 7.68466, 8.25298 7.80979, 8.25298 7.86769, 8.24758 7.92805, 8.23678 7.99038 L 7.04825 12.6385 C 6.97268 12.9216, 6.9349 13.1729, 6.9349 13.3923, 6.9349 13.5081, 6.94569 13.6101, 6.96728 13.6985, 7.01047 13.9659, 7.15327 14.0994, 7.39568 14.0989, 7.54143 14.0994, 7.66951 14.0523, 7.77992 13.9581, 7.89082 13.8638, 7.99437 13.7225, 8.09153 13.5341, 8.18869 13.3456, 8.27359 13.1209, 8.34621 12.8588, 8.41884 12.5973, 8.49588 12.3195, 8.57636 12.0261, 8.60875 11.8906, 8.70051 11.8224, 8.85166 11.8219 L 8.94048 11.8219 C 9.08082 11.8224, 9.151 11.8798, 9.151 11.9947 L 9.151 12.0496 Z" stroke="none" fill="#404080" />
			<rect />
		</svg>
	</g>
	<path d="M -56.3852 0 L 56.3853 0" fill="none" stroke="#FF3600" stroke-width="2.79999995" stroke-linecap="round" stroke-linejoin="round" transform="matrix(0.357143 0 0 0.357143 167.917 174.381)" />
	<path d="M -55.3929 0 L 55.3928 0" fill="none" stroke="#FF3600" stroke-width="2.79999995" stroke-linecap="round" stroke-linejoin="round" transform="matrix(0.357143 0 0 0.357143 126.99 174.381)" />
	<path d="M 0 -77.7143 L 0 77.7144" fill="none" stroke="#FF4800" stroke-width="1.39999998" stroke-linecap="round" stroke-linejoin="round" stroke-dasharray="4.907, 3.493" transform="matrix(0.357143 0 0 0.357143 106.968 146.626)" />
	<g transform="matrix(1 0 -0 1 169.56 174.214)">
		<svg width="120.038864" height="120.071968">
			<defs />
			<path d="M 9.151 12.0496 C 9.08622 12.3068, 9.01065 12.5816, 8.92428 12.8745, 8.83792 13.168, 8.7275 13.4428, 8.59256 13.699, 8.4581 13.9556, 8.28831 14.173, 8.08319 14.3506, 7.87855 14.5283, 7.617 14.6171, 7.29901 14.6171, 6.86767 14.6171, 6.51337 14.4983, 6.23562 14.2603, 5.95787 14.0223, 5.7974 13.7799, 5.75422 13.5336, 5.53879 13.8064, 5.24632 14.0552, 4.8768 14.28, 4.50778 14.5047, 4.09361 14.6171, 3.63528 14.6171, 3.32269 14.6171, 3.02236 14.5808, 2.73382 14.5072, 2.44527 14.4341, 2.22837 14.3325, 2.08263 14.201 L 1.26607 17.318 C 1.21749 17.5222, 1.1164 17.6743, 0.962801 17.7734, 0.809205 17.873, 0.651683 17.9226, 0.489745 17.9226, 0.333695 17.9226, 0.204144 17.8676, 0.101092 17.7577, 0.0314097 17.69, -0.00392228 17.5904, -0.00392228 17.4594, -0.00392228 17.4123, 0.00147569 17.3548, 0.0122716 17.2866 L 2.44675 7.77838 C 2.49533 7.57473, 2.59642 7.4231, 2.75001 7.32348, 2.90361 7.22436, 3.05573 7.1743, 3.20688 7.17381, 3.37421 7.1743, 3.51456 7.22387, 3.62743 7.32299, 3.6976 7.402, 3.73244 7.50652, 3.73244 7.63706, 3.73244 7.69496, 3.72704 7.75287, 3.71625 7.80979 L 2.73775 11.6099 C 2.65138 11.9613, 2.5974 12.3014, 2.57581 12.6306, 2.56501 12.694, 2.55961 12.7489, 2.55961 12.7955, 2.55961 13.0527, 2.60574 13.2907, 2.69751 13.51, 2.77848 13.699, 2.90901 13.8442, 3.08959 13.9463, 3.27018 14.0483, 3.47923 14.0994, 3.71625 14.0989, 4.14219 14.0994, 4.5225 13.9698, 4.85669 13.7107, 5.19087 13.4516, 5.49266 13.1125, 5.76207 12.6935, 5.76207 12.6782, 5.76501 12.6655, 5.77041 12.6547, 5.77581 12.6444, 5.77826 12.6311, 5.77826 12.6149 L 6.96728 7.95897 C 7.01586 7.75532, 7.11695 7.60221, 7.27055 7.50014, 7.42464 7.39807, 7.57676 7.34704, 7.72741 7.34655, 7.89475 7.34704, 8.0351 7.39955, 8.14796 7.50358, 8.21813 7.58259, 8.25298 7.68466, 8.25298 7.80979, 8.25298 7.86769, 8.24758 7.92805, 8.23678 7.99038 L 7.04825 12.6385 C 6.97268 12.9216, 6.9349 13.1729, 6.9349 13.3923, 6.9349 13.5081, 6.94569 13.6101, 6.96728 13.6985, 7.01047 13.9659, 7.15327 14.0994, 7.39568 14.0989, 7.54143 14.0994, 7.66951 14.0523, 7.77992 13.9581, 7.89082 13.8638, 7.99437 13.7225, 8.09153 13.5341, 8.18869 13.3456, 8.27359 13.1209, 8.34621 12.8588, 8.41884 12.5973, 8.49588 12.3195, 8.57636 12.0261, 8.60875 11.8906, 8.70051 11.8224, 8.85166 11.8219 L 8.94048 11.8219 C 9.08082 11.8224, 9.151 11.8798, 9.151 11.9947 L 9.151 12.0496 Z" stroke="none" fill="#404080" />
			<polyline points="-5.628 0 5.628 0" fill="none" stroke="#C14E61" stroke-width="0.64319998" stroke-linecap="round" stroke-linejoin="round" transform="matrix(1 0 0 1 19.4461 9.60638)" />
			<polyline points="0 -5.628 0 5.628" fill="none" stroke="#C14E61" stroke-width="0.64319998" stroke-linecap="round" stroke-linejoin="round" transform="matrix(1 0 0 1 19.4461 9.60638)" />
			<path d="M 36.9892 12.0496 C 36.9244 12.3068, 36.8518 12.5816, 36.7708 12.8745, 36.6904 13.168, 36.5824 13.4399, 36.4475 13.6911, 36.313 13.9424, 36.1432 14.1597, 35.9381 14.3428, 35.7335 14.5258, 35.4773 14.6171, 35.1701 14.6171, 34.7604 14.6171, 34.433 14.5037, 34.1877 14.276, 33.9423 14.0483, 33.801 13.8167, 33.7632 13.5807, 33.5802 13.7907, 33.3068 14.016, 32.9427 14.2564, 32.5786 14.4969, 32.1944 14.6171, 31.79 14.6171, 31.3646 14.6171, 31.0078 14.5101, 30.7193 14.2957, 30.4307 14.0812, 30.206 13.8113, 30.044 13.4865, 29.8497 13.0998, 29.7471 12.6836, 29.7363 12.2381 L 29.7363 12.1203 C 29.7363 11.7071, 29.7933 11.2939, 29.9061 10.8798, 30.0357 10.4249, 30.2168 9.97486, 30.4484 9.52977, 30.68 9.08518, 30.9872 8.6715, 31.37 8.28873, 31.6825 7.97516, 32.0398 7.71115, 32.4412 7.49622, 32.8426 7.28177, 33.2509 7.1743, 33.666 7.17381, 34.0272 7.1743, 34.3212 7.26999, 34.5474 7.46089, 34.7741 7.65227, 34.9169 7.81028, 34.9758 7.93541 L 34.9434 8.06889 C 34.9817 7.87555, 35.072 7.72931, 35.2148 7.62969, 35.3576 7.53057, 35.5018 7.48052, 35.6471 7.48002, 35.8144 7.48052, 35.9548 7.53008, 36.0676 7.6292, 36.1378 7.70821, 36.1756 7.81273, 36.1805 7.94327, 36.1805 7.99087, 36.1751 8.04337, 36.1643 8.1003 L 35.0003 12.6385 C 34.9463 12.8534, 34.9086 13.0551, 34.887 13.2431, 34.8762 13.3378, 34.8708 13.4241, 34.8708 13.5022, 34.8708 13.5709, 34.8762 13.644, 34.887 13.722, 34.9032 13.8481, 34.9409 13.9424, 35.0003 14.0052, 35.0597 14.068, 35.1431 14.0994, 35.2506 14.0989, 35.3639 14.0994, 35.4704 14.0523, 35.57 13.9581, 35.6702 13.8638, 35.7619 13.724, 35.8453 13.538, 35.9288 13.3525, 36.0083 13.1297, 36.0838 12.8706, 36.1594 12.6115, 36.2374 12.3303, 36.3179 12.0261, 36.3503 11.8906, 36.4421 11.8224, 36.5932 11.8219 L 36.7792 11.8219 C 36.9195 11.8224, 36.9892 11.8798, 36.9892 11.9947 L 36.9892 12.0496 Z M 34.6769 9.16026 C 34.6553 9.06653, 34.6367 8.96839, 34.6205 8.86632, 34.6043 8.76425, 34.5798 8.66365, 34.5474 8.56354, 34.461 8.31818, 34.3383 8.11257, 34.1793 7.94768, 34.0203 7.7828, 33.8196 7.70036, 33.5772 7.69987, 33.351 7.70036, 33.1272 7.78182, 32.9064 7.94376, 32.6856 8.10619, 32.4829 8.31523, 32.2994 8.57139, 32.0413 8.93305, 31.8474 9.30895, 31.7179 9.69858, 31.5883 10.0887, 31.4696 10.4955, 31.3616 10.919, 31.2541 11.3381, 31.1653 11.7439, 31.0947 12.136, 31.052 12.3352, 31.0304 12.5237, 31.0304 12.7013, 31.0304 12.8902, 31.052 13.0733, 31.0947 13.2509, 31.1437 13.4973, 31.2311 13.7004, 31.3577 13.8599, 31.4843 14.0199, 31.661 14.0994, 31.8872 14.0989, 32.1355 14.0994, 32.3848 14.013, 32.635 13.8403, 32.8858 13.6675, 33.1189 13.4556, 33.3343 13.2038, 33.4207 13.0998, 33.5031 12.9992, 33.5812 12.902, 33.6597 12.8053, 33.7284 12.7018, 33.7873 12.5914 L 34.6769 9.16026 Z" stroke="none" fill="#404080" />
			<rect />
		</svg>
	</g>
	<g transform="matrix(1 0 -0 1 88.7109 174.214)">
		<svg width="120.038864" height="83.9999847">
			<defs />
			<path d="M 9.151 12.0496 C 9.08622 12.3068, 9.01065 12.5816, 8.92428 12.8745, 8.83792 13.168, 8.7275 13.4428, 8.59256 13.699, 8.4581 13.9556, 8.28831 14.173, 8.08319 14.3506, 7.87855 14.5283, 7.617 14.6171, 7.29901 14.6171, 6.86767 14.6171, 6.51337 14.4983, 6.23562 14.2603, 5.95787 14.0223, 5.7974 13.7799, 5.75422 13.5336, 5.53879 13.8064, 5.24632 14.0552, 4.8768 14.28, 4.50778 14.5047, 4.09361 14.6171, 3.63528 14.6171, 3.32269 14.6171, 3.02236 14.5808, 2.73382 14.5072, 2.44527 14.4341, 2.22837 14.3325, 2.08263 14.201 L 1.26607 17.318 C 1.21749 17.5222, 1.1164 17.6743, 0.962801 17.7734, 0.809205 17.873, 0.651683 17.9226, 0.489745 17.9226, 0.333695 17.9226, 0.204144 17.8676, 0.101092 17.7577, 0.0314097 17.69, -0.00392228 17.5904, -0.00392228 17.4594, -0.00392228 17.4123, 0.00147569 17.3548, 0.0122716 17.2866 L 2.44675 7.77838 C 2.49533 7.57473, 2.59642 7.4231, 2.75001 7.32348, 2.90361 7.22436, 3.05573 7.1743, 3.20688 7.17381, 3.37421 7.1743, 3.51456 7.22387, 3.62743 7.32299, 3.6976 7.402, 3.73244 7.50652, 3.73244 7.63706, 3.73244 7.69496, 3.72704 7.75287, 3.71625 7.80979 L 2.73775 11.6099 C 2.65138 11.9613, 2.5974 12.3014, 2.57581 12.6306, 2.56501 12.694, 2.55961 12.7489, 2.55961 12.7955, 2.55961 13.0527, 2.60574 13.2907, 2.69751 13.51, 2.77848 13.699, 2.90901 13.8442, 3.08959 13.9463, 3.27018 14.0483, 3.47923 14.0994, 3.71625 14.0989, 4.14219 14.0994, 4.5225 13.9698, 4.85669 13.7107, 5.19087 13.4516, 5.49266 13.1125, 5.76207 12.6935, 5.76207 12.6782, 5.76501 12.6655, 5.77041 12.6547, 5.77581 12.6444, 5.77826 12.6311, 5.77826 12.6149 L 6.96728 7.95897 C 7.01586 7.75532, 7.11695 7.60221, 7.27055 7.50014, 7.42464 7.39807, 7.57676 7.34704, 7.72741 7.34655, 7.89475 7.34704, 8.0351 7.39955, 8.14796 7.50358, 8.21813 7.58259, 8.25298 7.68466, 8.25298 7.80979, 8.25298 7.86769, 8.24758 7.92805, 8.23678 7.99038 L 7.04825 12.6385 C 6.97268 12.9216, 6.9349 13.1729, 6.9349 13.3923, 6.9349 13.5081, 6.94569 13.6101, 6.96728 13.6985, 7.01047 13.9659, 7.15327 14.0994, 7.39568 14.0989, 7.54143 14.0994, 7.66951 14.0523, 7.77992 13.9581, 7.89082 13.8638, 7.99437 13.7225, 8.09153 13.5341, 8.18869 13.3456, 8.27359 13.1209, 8.34621 12.8588, 8.41884 12.5973, 8.49588 12.3195, 8.57636 12.0261, 8.60875 11.8906, 8.70051 11.8224, 8.85166 11.8219 L 8.94048 11.8219 C 9.08082 11.8224, 9.151 11.8798, 9.151 11.9947 L 9.151 12.0496 Z" stroke="none" fill="#404080" />
			<polyline points="-5.628 0 5.628 0" fill="none" stroke="#C14E61" stroke-width="0.64319998" stroke-linecap="round" stroke-linejoin="round" transform="matrix(1 0 0 1 19.4461 9.60638)" />
			<path d="M 36.9887 12.0496 C 36.9244 12.3068, 36.8518 12.5816, 36.7708 12.8745, 36.6899 13.168, 36.5819 13.4399, 36.447 13.6911, 36.3125 13.9424, 36.1427 14.1597, 35.9376 14.3428, 35.733 14.5258, 35.4768 14.6171, 35.1691 14.6171, 34.7599 14.6171, 34.4321 14.5037, 34.1867 14.276, 33.9413 14.0483, 33.8 13.8167, 33.7622 13.5807, 33.5787 13.7907, 33.3054 14.016, 32.9412 14.2564, 32.5776 14.4969, 32.1934 14.6171, 31.789 14.6171, 31.3631 14.6171, 31.0058 14.5101, 30.7173 14.2957, 30.4287 14.0812, 30.204 13.8113, 30.0421 13.4865, 29.8482 13.0998, 29.7457 12.6836, 29.7349 12.2381 L 29.7349 12.1203 C 29.7349 11.7071, 29.7918 11.2939, 29.9047 10.8798, 30.0342 10.4249, 30.2148 9.97486, 30.4464 9.52977, 30.6785 9.08518, 30.9857 8.6715, 31.3685 8.28873, 31.6816 7.97516, 32.0388 7.71115, 32.4402 7.49622, 32.8416 7.28177, 33.2499 7.1743, 33.6651 7.17381, 34.0262 7.1743, 34.3202 7.26999, 34.5464 7.46089, 34.7731 7.65227, 34.9159 7.81028, 34.9753 7.93541 L 34.9429 8.06889 C 34.9807 7.87555, 35.071 7.72931, 35.2138 7.62969, 35.3571 7.53057, 35.5013 7.48052, 35.6466 7.48002, 35.8134 7.48052, 35.9538 7.53008, 36.0672 7.6292, 36.1373 7.70821, 36.1751 7.81273, 36.18 7.94327, 36.18 7.99087, 36.1746 8.04337, 36.1638 8.1003 L 34.9993 12.6385 C 34.9454 12.8534, 34.9076 13.0551, 34.886 13.2431, 34.8757 13.3378, 34.8703 13.4241, 34.8703 13.5022, 34.8703 13.5709, 34.8757 13.644, 34.886 13.722, 34.9027 13.8481, 34.9404 13.9424, 34.9993 14.0052, 35.0587 14.068, 35.1421 14.0994, 35.2501 14.0989, 35.3635 14.0994, 35.4699 14.0523, 35.5696 13.9581, 35.6697 13.8638, 35.7614 13.724, 35.8449 13.538, 35.9283 13.3525, 36.0078 13.1297, 36.0833 12.8706, 36.1589 12.6115, 36.2369 12.3303, 36.3174 12.0261, 36.3498 11.8906, 36.4416 11.8224, 36.5927 11.8219 L 36.7787 11.8219 C 36.919 11.8224, 36.9887 11.8798, 36.9887 11.9947 L 36.9887 12.0496 Z M 34.676 9.16026 C 34.6544 9.06653, 34.6357 8.96839, 34.6195 8.86632, 34.6033 8.76425, 34.5788 8.66365, 34.5464 8.56354, 34.4605 8.31818, 34.3378 8.11257, 34.1788 7.94768, 34.0199 7.7828, 33.8187 7.70036, 33.5762 7.69987, 33.35 7.70036, 33.1262 7.78182, 32.9049 7.94376, 32.6841 8.10619, 32.4819 8.31523, 32.2984 8.57139, 32.0398 8.93305, 31.846 9.30895, 31.7164 9.69858, 31.5869 10.0887, 31.4681 10.4955, 31.3601 10.919, 31.2527 11.3381, 31.1639 11.7439, 31.0932 12.136, 31.0505 12.3352, 31.0289 12.5237, 31.0289 12.7013, 31.0289 12.8902, 31.0505 13.0733, 31.0932 13.2509, 31.1423 13.4973, 31.2296 13.7004, 31.3562 13.8599, 31.4828 14.0199, 31.6595 14.0994, 31.8857 14.0989, 32.134 14.0994, 32.3833 14.013, 32.6341 13.8403, 32.8848 13.6675, 33.1179 13.4556, 33.3333 13.2038, 33.4197 13.0998, 33.5021 12.9992, 33.5802 12.902, 33.6587 12.8053, 33.7274 12.7018, 33.7863 12.5914 L 34.676 9.16026 Z" stroke="none" fill="#404080" />
			<rect />
		</svg>
	</g>
</svg>
